<svg id="Laag_1" data-name="Laag 1" xmlns="http://www.w3.org/2000/svg" viewBox="0 0 1000 1000">
  <defs>
    <style>
      .cls-1 {
        fill: none;
      }

      .cls-2 {
        fill: #fff;
        stroke: #fff;
        stroke-width: 2.83px;
      }

      .cls-3 {
        fill: #d06536;
      }

      .cls-4 {
        fill: #eec22b;
      }

      .cls-5 {
        fill: #222221;
      }
    </style>
  </defs>
  <title>profiel nijn</title>
  <rect class="cls-1" width="1000" height="1000"/>
  <polyline class="cls-2" points="458.36 926.96 457.19 927.21 455.79 927.77 454.98 927.88 454.26 927.6 452.36 927.1 450.91 927.54 447 927.55 444.34 927.4 442.38 927.79 440.63 927.25 439.41 927.4 436.91 927.28 433.97 927.47 433 927.03 432.24 926.35 431.5 926.09 430.18 926.24 428.12 926.6 426.49 926.31 421.76 926.38 419.74 926.53 418.18 926.26 416.63 925.87 415.34 925.82 411.75 925.38 410.77 925.7 409.73 925.38 408.51 925.43 401.47 924.84 400.08 924.27 399.35 924.24 398.31 923.98 396.34 923.85 392.39 923.87 390.17 923.76 387.13 921.99 383.81 920.98 382.72 920.6 381.33 919.11 379.56 918 379.02 917.07 377.86 915.35 377.1 914.18 376.72 912.65 376.23 911.2 375.21 909.34 375.06 908.04 374.35 906.34 374.28 904.71 374.84 903.35 375.25 902.33 374.67 901.04 374.46 899.78 374.96 895.43 375.47 893.04 376.57 889.8 377.06 889.35 377.98 888.34 378.99 885.97 380.85 883.02 384.02 880.88 386.34 878.38 387.93 877.57 389.49 876.7 390.24 876.48 393.36 876.72 394.59 877.41 395.83 877.6 397.05 877.35 401.78 877.59 402.85 877.19 403.61 877.21 404.17 877.63 407.01 878.64 408.85 878.74 410 879.05 411.41 878.89 414.63 879.06 416.34 879.3 417.53 879.22 418.72 879.15 421.24 880 422.62 879.96 423.72 880.1 425.62 879.79 427.58 880.08 428.9 880.17 430.45 879.76 431.71 879.79 432.63 880.34 434.51 880.86 435.65 880.81 437.28 880.85 438.93 880.53 440.26 880.58 441.57 881.19 443.38 881.31 445.29 880.86 445.99 881.12 447.23 881.31 448.69 880.85 450.13 881.32 451.32 881.41 452.41 881.6 455.49 881.78 459.22 882.21 461.45 881.54 464.43 881.8 466.64 881.6 469.78 881.46 471.99 881.63 473.59 881.31 476.6 881.82 477.14 882.24 477.39 883.91 477.9 884.84 478.09 886.13 477.84 887.34 477.77 889.35 477.94 891.57 478.41 894 478.04 896.98 478.19 898.05 478.52 900.15 478.36 901.35 477.85 906.76 477.04 908.82 477.07 910.01 476.66 912.44 476.92 913.6 476.61 915.18 475.86 917.8 475.47 920.3 474.91 921.18 473.25 923.37 472.26 923.83 470.08 925.04 467.16 925.46 466.16 925.92 463.95 926.6 461.28 926.84 459.62 926.75 458.36 926.96"/>
  <polyline class="cls-2" points="550.65 924.8 549.32 925.26 548.07 925.89 546.45 925.67 545.19 925 544.41 924.82 542.15 924.97 538.73 925.43 536.95 925.38 535.23 925.43 534.08 925.23 531.95 925.31 529.3 925.16 527.54 925.29 523.46 925.16 521.3 924.97 519.46 924.38 518.15 924.45 515.14 924.55 513.85 924.61 510.35 924.36 508.55 924.46 505.05 924.19 501.68 923.25 500.41 923.4 499.12 923.24 497.25 922.2 495.7 920.86 493.3 918.92 492.93 918.36 492.95 917.61 492.45 915.74 491.16 913.16 491.11 912.36 491.59 910.88 492.23 910.05 492.35 909.32 491.37 906.41 491.25 904.68 491.06 901.55 491.52 899.08 491.09 895.75 491.94 891.32 491.72 887.42 492.18 885.93 492.61 882.99 492.61 880.9 492.81 880.63 493.51 880.39 495.05 880.63 496.48 880.12 499.71 880.56 502.33 880.51 503.91 880.15 506.08 879.91 509.88 879.69 514.26 878.77 515.53 878.84 516.89 878.84 519.9 878.84 522.91 879.05 524.12 878.84 526.43 878.74 528.23 878.13 529.93 878.21 531.76 877.99 533.29 877.59 534.32 877.16 535.58 876.96 537.09 877.38 540.03 877.74 542.29 877.11 546.72 876.72 548.81 876.39 554.18 875.49 556.68 875.46 558.89 874.27 560.61 874.34 561.75 874.07 563.51 873.91 564.74 874.15 566.48 875.29 570.28 876.31 571.15 876.89 572.85 877.6 574.68 879.61 576.06 880.64 578.16 882.39 579.46 884.49 580.85 885.49 581.38 885.91 581.55 887.2 582.06 889.11 584.12 892.83 584.15 893.97 584.51 895.48 585 896.45 585.22 897.22 584.83 899.25 584.88 901.86 585.19 903.47 585.12 906.12 584.49 906.94 583.81 908.2 583.76 909.57 583.38 911.13 582.21 912.85 581.35 914.87 580.11 916.52 579.36 917.22 578.73 918.03 576.72 920.38 575.41 920.99 574.55 921.57 573.32 922.27 570.87 923.2 566.48 924.1 565.25 924.12 563.79 924.43 562.21 924.22 558.86 925.06 557.35 924.76 554.85 924.99 552.76 924.67 551.23 924.48 550.65 924.8"/>
  <polyline class="cls-3" points="481.88 868.58 478.46 869 477.17 868.39 475.01 867.66 473.43 867.98 472.64 867.79 471.48 867.79 470.17 867.66 468.95 867.85 467.33 868.15 465 868.71 462.39 868.66 460.48 868.54 458.39 868.85 456.56 868.93 455.49 868.58 454.3 868.28 452.85 868.73 449.84 868.46 446.77 868.58 444.81 868.17 444.01 868.27 441.77 868.47 440.09 868.24 438.98 867.4 436.31 867.16 434.12 866.96 429.51 866.86 425.91 867.15 424.09 866.55 421.93 866.77 419.3 866.69 418.18 866.35 415.27 865.89 413.08 866.01 411.07 865.59 408.42 864.89 405.81 864.6 403.82 864.17 403.39 863.63 402.9 863.15 401.85 862.97 401.69 863.54 401.49 864.15 400.81 864.36 398.89 863.94 396.29 864.19 391.9 863.41 390.69 863.48 389.54 863.19 385.26 862.68 383.62 862.37 381.72 862.36 380.53 862.08 377.51 861.27 374.94 861.49 373.55 861.05 371.91 860.74 369.09 860.2 364.45 859.53 362 859.09 359.92 858.78 358.88 858.38 357.81 858 356.48 857.39 354.2 856.78 351.74 856.68 348.76 856.61 346.71 855.77 344.92 855.15 343.99 854.64 342.07 853.65 340.01 853.31 336 852.51 334.01 852.09 331.22 851.02 329.61 850.22 328.45 849.93 326.65 849.32 323.36 847.79 318.58 846.31 317 846.53 316.52 846.14 314.58 844.68 310.68 842.81 308.35 842.25 305.71 841.04 302.81 839.12 300.34 837.73 298.93 837.22 297.33 836.4 295.45 835.87 294.21 835.2 293.03 833.95 290.77 832.38 289.06 831.17 286.75 829.64 283.79 827.31 281.05 825.22 280.37 823.98 279.44 822.98 276.09 821.04 273.01 818.81 272.06 816.87 270.14 814.46 269.25 812.93 267.32 811.5 266.57 810.31 266.35 808.63 265.96 807.56 265.7 806.35 265.18 805.43 264.74 803.96 264.11 801.3 264.89 798.36 265.21 795.36 265.01 794.23 265.24 793.09 265.41 790.72 266.15 789.03 266.76 786.75 267.2 783.18 267.47 782.01 267.69 780.77 268.37 777.61 268.2 775.1 268.29 773.84 269.22 771.85 269.24 770.18 270 768.14 270.11 766.33 270.5 764.78 270.36 763.66 270.38 762.45 270.72 760.84 270.9 759.56 271.19 757.95 271.16 756.57 271.13 755.31 271.89 753.64 272.38 751.26 272.77 747.87 272.4 746.85 272.96 745.1 273.79 743.51 273.95 741.8 274.13 738.71 274.71 736.39 274.95 734.97 275.27 733.93 275.39 732.11 275.88 729.7 276.36 728.25 276.8 725.81 276.68 724.07 276.89 722.85 277.74 720.33 277.96 719.11 278.21 717.92 278.35 715.81 278.67 712.62 278.23 712.09 276.53 711.37 274.78 710.24 272.3 709.35 271.6 709.51 270.63 710.48 267.44 711.63 265.57 715.07 264.26 717.61 263.75 717.87 263.12 717.58 260.5 715.35 259.65 714.28 259.36 712.65 258.12 711.95 257.51 711.12 256.03 709.23 255.25 707.13 254.52 706.39 253.93 704.58 253.93 702.5 253.26 701.25 252.02 700.56 250.35 698.85 249.44 695.43 248.59 693.85 248.42 692.44 248.3 690.91 247.45 688.91 247.33 686.51 247.65 684.95 248.52 683.87 248.59 682.5 249 681.44 250.07 680.61 250.71 679.79 251.46 679.1 252.82 678.04 253.87 677.65 255.76 676.19 257.31 674.83 260.33 672.55 262.49 671.82 264.29 669.77 265.77 669.33 268.08 667.3 269.82 666.95 272.62 664.45 273.54 663.92 274.71 663.17 276.9 661.51 278.37 661.05 279.13 660.35 282.41 657.87 284.77 656.36 286.13 655.32 288.11 654.39 289.31 653.2 291.05 652.5 292.52 652.7 293.48 652.23 293.9 651.21 294.34 650.68 295.48 650.38 296.26 649.69 298.4 648 300.31 647.01 301.77 646.55 304.08 644.99 307.63 642.78 310.03 641.31 313.09 639.55 314.86 639.41 316.22 638.82 316.95 638.1 317.64 637.37 320.02 636.35 321.4 636.35 325.43 638.54 326.36 640.01 327.5 641.3 328.57 641.67 330.92 643.19 332.62 644.36 333.62 645.29 335.08 646.25 335.98 646.79 339.4 649.15 341.08 649.39 341.61 649.83 342.24 650.15 343.32 649.85 344.04 649.8 346.25 650.97 347.29 652.33 348.32 652.76 349.67 653.82 350.8 654.13 355.89 655.8 357.47 656.63 359.1 656.92 359.98 657.48 361.53 657.85 362.33 658.98 363.26 659.5 365.22 659.96 366.17 660.45 368.89 661.1 371.1 661.3 374.55 662.68 378.46 664.06 380 664.91 382.42 665.4 384.36 665.88 385.85 666.04 388.15 666.56 393.13 667.37 394.67 667.76 396.95 668.37 398.68 669.04 399.87 669 404 669.19 406.65 670.4 408.39 670.31 409.61 670.48 411.35 671.16 412.47 671.06 414.78 671.43 417.04 671.55 418.4 672.13 420.05 672.37 422.67 672.21 423.45 672.39 426.85 672.52 428.5 672.79 429.69 672.64 430.93 672.59 432 673 434.39 673.46 437.16 673.49 438.76 673.22 442.09 673.32 446.04 672.44 447.57 672.03 448.75 672.3 451.07 672.86 452.92 672.91 454.3 672.37 456.17 672.59 459.11 672.69 460.67 672.28 461.88 672.28 462.98 672.06 466.41 671.93 467.86 671.62 470.61 671.62 475.49 671.84 476.56 671.47 477.92 671.4 480.5 671.2 481.95 670.96 484.53 670.6 486.61 670.92 487.8 670.69 491.4 670.43 495.94 669.19 497.25 669.24 498.56 669.26 500.05 668.78 501.67 668.58 503.1 668.9 503.69 668.63 504.44 668.63 506.15 668.49 507.58 667.98 509.47 667.48 512.71 666.38 513.66 665.86 514.26 665.72 515.23 666.22 516.66 666.06 518.8 665.88 524.15 664.48 526.33 663.75 527.52 663.8 529.86 663.29 532.15 661.73 533.79 661.42 536.37 660.64 538.33 659.71 539.64 659.08 542.54 657.65 545.38 657.12 546.5 656.8 547.45 655.82 548.24 655.15 550.19 654.69 552.5 653.64 553.61 652.82 555.21 652.01 556.48 652.13 557.28 652.01 558.04 651.31 558.61 650.88 559.47 650.8 560.07 650.43 560.61 650.12 563.8 650.72 565 651.46 565.49 652.41 565.74 654.06 566.02 655.73 567.27 658.35 568.14 661.8 569.92 667.73 571.57 672.33 573.73 675.97 574.29 677.31 575.89 680.54 577.89 683.35 579 685.66 578.91 686.29 578.37 686.75 576.02 687.27 573.12 688.23 571.67 689.2 570.14 690.06 567.95 691.25 562.99 693.51 559.76 694.63 555.02 697.12 552.76 698.22 550.73 699.58 544.05 703.01 539.52 705.7 537.14 707.65 534.72 709.08 532.14 710.85 531.19 711.82 529.44 713.92 528.2 714.61 526.19 716.46 525.68 717.89 524.81 718.47 524.12 719.21 521.96 721.86 519.88 724.62 518.18 727.74 516.43 730.8 513.68 737.21 513.8 738.26 513.46 743.75 513.58 744.93 513.84 747.92 514.02 750.26 515.16 752.85 515.69 754.72 517 756.77 517.54 758.16 519.15 761.86 521.18 763.69 521.69 765.1 523.08 766.6 525.61 767.92 526.97 769.45 529 771.29 531.15 772.02 532.31 772.76 532.63 773.45 532.67 774.33 532.21 775.33 531.51 777.98 530.66 781.49 530.61 783.36 529.93 786.53 529.54 790.49 529.37 792.48 528.98 795.39 529.45 799.25 528.83 803.41 529.12 805.06 528.98 807.75 530.17 813.34 530.17 814.51 530.49 816.51 531.72 819.64 532.67 823.02 533.4 825.67 535.86 829.94 537.22 831.47 537.88 832.73 538.82 833.73 539.46 835.02 540.88 836.5 541.76 837.05 542.59 837.66 543.15 839.02 544.63 840.92 545.82 841.67 547.98 841.91 550.82 843.4 551.82 844.34 552.69 844.91 554.27 845.26 555.12 845.85 556.51 846.85 559.47 847.3 560.39 847.81 562.26 848.35 563.68 849.34 564.47 849.51 566.08 849.22 567.95 849.73 570.79 850.27 572.51 850.13 573.71 850.37 578.63 850.95 580.39 850.82 583.59 850.95 588.48 850.54 590.03 850.8 591.52 850.37 593.77 850.2 594.48 849.49 603.81 845.31 609.76 841.64 614 839.11 614.5 838.19 615.34 837.1 617.21 835.58 618.5 833.5 619.01 833.04 619.32 833.05 619.74 833.58 621.34 840.24 621.15 840.97 620.03 841.3 618.57 842.23 616.22 844.71 613.45 846.29 611.55 847.28 610.42 848.06 609.41 848.5 605.33 850.2 604.05 850.85 600.96 852.58 600.26 852.63 599.23 852.92 591.88 855.73 590.83 855.81 587.94 856.27 586.5 856.75 583.1 857.68 578.08 858.95 576.55 858.69 573.09 859.55 571.3 860.18 567.25 861.44 566.08 861.46 565.01 861.76 563.82 861.73 561.61 861.91 559.35 862.52 556.45 863 553.86 863.02 552.26 863.33 550.65 863 549.36 863.14 546.28 863.9 542.54 864.5 540.88 864.77 538.97 865.19 538.23 865.02 536 864.92 534.38 864.67 531.87 864.92 527.13 865.48 524.56 865.52 523.59 865.94 521.33 866.42 519.85 866.08 518.69 866.35 515.99 866.25 514.09 866.08 512.95 866.4 508.33 867.07 504.2 867.16 499.78 866.91 498.74 867.3 497.65 867.35 495.38 867.44 493.17 867.66 490.79 868.17 489.5 868.3 488.34 867.98 487.17 867.91 485.47 867.81 481.88 868.58"/>
  <polyline class="cls-4" points="660.04 858 662.45 858.36 665.34 857.87 667.28 857.39 669.42 857.14 673.87 856.27 675.76 855.29 677.88 854.98 679.5 854.67 681.22 853.99 685.38 851.41 686.83 850.44 690.67 847.53 692.77 845.31 693.86 844.46 695 843.2 696.39 840.74 697.62 839.57 698.74 837.8 700.44 835.14 701.49 833.79 703.87 830.4 706.3 825.59 707.34 823.74 707.88 822.35 709.04 820.14 710.57 815.89 711.16 814.07 711.62 812.61 712.78 810.38 713.56 805.4 713.51 804.24 713.36 802.03 713.53 798.91 713.05 795.07 712.68 793.49 712.49 791.12 711.49 788.27 710.72 785.65 709.79 784.66 708.49 782.59 706.03 779.75 704.62 777.78 703.65 776.81 702.38 776.16 696.19 772.72 694.27 772.24 690.97 771.19 686.98 770.35 683.49 770.16 682.39 770.52 681.08 770.67 675.66 769.74 673.92 770.4 671.85 770.74 669.28 771.56 667.89 772.56 666.19 773.75 663.78 774.23 662.96 774.86 661.43 775.73 658.93 778.07 657.44 778.97 655.08 780.47 652.93 781.21 650.93 783.07 649.96 783.54 649.01 784.04 648.09 785.51 645.76 788.01 643.32 791.36 641.8 793.2 640.41 796.14 639.01 798.6 637.99 800.98 636.79 803.14 636.36 804.14 635.21 808.3 633.59 811.01 632.45 814.2 631.96 817.11 630.45 820.87 630.02 823.84 630.89 829.16 630.57 831.61 630.41 832.71 630.92 834.14 631.81 838.09 633.08 840.65 634.25 843.81 635.63 845.82 637.35 847.47 639.24 848.95 639.85 849.78 640.51 851.05 643.55 852.84 646.48 853.76 648.65 854.95 649.88 855.18 651.27 855.71 652.9 856 655.37 856.92 657.42 857.27 660.04 858"/>
  <polyline class="cls-4" points="588.25 840.97 585.14 841.41 582.41 841.48 580.75 841.24 578.18 841.4 575.33 840.9 571.69 840.67 569.16 840.33 566.9 839.72 564.96 839.22 561.48 837.9 559.98 837 557.5 835.6 553.39 833.48 548.75 829.91 545.86 827.04 543.73 823.84 542.46 820.78 542.2 818.62 540.98 815.51 539.87 809.87 538.84 807.07 538.65 804.9 539.19 803.5 539.74 801.17 539.43 799.55 539.53 797.23 539.48 795.98 539.59 793.3 538.96 791.02 539.43 788.64 540.3 787.11 540.72 785.12 541.34 782.85 541.79 779.92 542.17 777.4 542.41 776.69 543.39 775.74 544.11 774.52 544.29 772.31 544.65 771.22 545.4 770.52 546.77 769.49 547.88 767.7 549.58 765.07 550.12 762.74 551.47 760.68 552.32 760.09 555.1 758.07 555.97 756.99 556.66 755.77 557.92 754.63 559.06 753.82 560.17 753.71 561.24 753.44 562.56 752.34 564.65 751.54 565.37 750.82 566.71 749.3 568.82 748.97 570.5 748.24 574.36 747.29 576.21 747.2 579.12 746.76 582.79 746.88 586.63 747.37 588.25 747.36 589.85 747.7 592.48 748.9 593.7 749.14 594.47 749.35 595.11 750.13 596.49 751.16 598.25 752.29 599.5 752.98 600.98 754.39 602.78 756.92 603.73 757.89 604.7 758.86 606.47 762.38 607.52 764.71 608.11 765.56 609.49 766.6 610.49 767.99 611 769.89 611.97 772.78 612.79 774.87 613.54 776.52 614.83 779.57 615.24 782.06 615.32 783.18 615.75 785.07 616.19 788.97 616.49 790.58 616.25 793.11 616.75 796.9 616.83 801.88 617 804.08 616.82 806.3 617.24 808.73 616.97 811.25 616.25 812.96 615.42 815.99 615.05 818.98 614.28 822.55 613.74 823.45 612.31 825.86 610.58 828.96 608.95 831.18 607.61 832.25 605.16 834.62 601.03 837.73 596.56 839.51 593.07 840.36 589.99 841.14 588.25 840.97"/>
  <polyline class="cls-4" points="723.2 807.95 723.01 810.63 723.18 810.84 723.66 810.55 726.29 805.91 726.66 804.36 726.42 799.33 724.98 795.93 724.52 795.49 724.35 795.61 724.29 795.97 724.44 797.31 724.39 800.79 723.94 802.77 723.91 803.94 723.91 806.27 723.2 807.95"/>
  <polyline class="cls-2" points="627.25 792.96 627.44 795.25 627.64 795.44 627.88 795.39 628.36 794.88 631.82 790.14 632.62 789.01 636.07 784.27 639.05 781.45 641.04 779.6 642.91 777.12 643.26 776.16 642.46 773.6 641.39 769.38 640.31 766.61 639.86 763.67 639.47 760.05 639.24 758.37 638.67 757.49 637.72 755.06 637.84 754.26 637.86 753.17 637.84 751.59 637.09 749.43 636.46 748.62 635.92 747.7 635.84 746.93 636.21 745.88 635.9 743.87 635.79 742.07 635.02 739.45 634.13 736.02 633.58 734.63 632.98 734.28 630.94 733.93 627.17 734.39 624.11 736.17 622.34 736.33 620.32 737.19 618.57 738.81 616.95 739.62 615.3 740.85 614.08 741.56 612.45 742.82 611.7 743.99 610.27 745.93 608.63 746.73 608.51 747.05 608.69 747.78 610.41 749.94 610.97 751.3 613.09 754 615.2 756.72 616.25 759.02 616.78 760.92 617.75 762.35 618.67 764.81 620.49 767.33 621.39 768.82 622.92 773.57 623.62 774.79 624.91 776.88 625.6 778.58 626.76 783.7 626.62 785.41 627.15 788.28 626.98 789.75 627.35 791.77 627.25 792.96"/>
  <polyline class="cls-2" points="251.9 776.47 254.37 776.93 255.12 776.71 255.44 776.07 255.47 774.19 256.36 771.2 256.97 770.44 256.76 769.38 257.12 766.84 257.55 764.83 257.44 762.67 258.11 761.4 258.67 759.56 259.07 757.08 258.9 755.62 259.48 754.26 259.55 753.18 260.03 751.74 260.62 746.56 260.89 745.38 261.18 743.74 260.98 740.27 259.86 738.98 259.4 737.99 258.48 736.97 258.02 735.51 256.05 733.15 255.34 731.92 254.37 730.96 253.47 728.99 252.51 728.01 250.98 725.69 250.01 723.76 249.15 721.25 247.99 719.99 246.91 717.72 245.88 716.82 245.17 715.59 243.79 714.08 243.22 712.74 242.45 712.05 241.81 710.85 241.99 709.78 241.87 708.45 241.5 707.86 240.84 707.55 239.63 707.43 239.39 707.63 239.26 708.65 237.1 710.85 235.47 711.61 235.18 712.29 234.57 713.6 233.55 714.52 232.73 716.12 232.02 716.83 230.84 717.1 230.08 717.78 228.6 720.66 227.53 721.98 226.97 723.36 225.78 725.06 224.61 726.75 224.2 728.78 223.64 729.65 223.04 731.94 223.16 734.63 222.55 735.95 222.24 737.09 222.57 738.19 222.99 740.59 222.53 741.54 222.11 742.6 222.14 743.43 222.63 744.4 222.8 746.3 223.09 748.43 223.79 749.67 224.04 751.34 224.69 753.58 225.54 754.65 226 756.13 228.02 758.93 228.65 760.21 230.11 763.57 231.59 765.47 232.78 765.73 234.18 766.27 236.47 768.31 236.96 769.25 237.97 770.67 240.18 772.29 242.3 773.07 243.73 774.06 248.32 775.73 250.8 776.13 251.9 776.47"/>
  <polyline class="cls-3" points="714.72 774.11 715.94 775.32 716.55 775.57 717.16 775.28 720.38 772.22 722.89 768.94 724.97 765.24 726.03 762.94 727.46 760.5 728.25 758.4 729.23 754.09 729.77 750.77 729.59 747.83 729.74 744.14 729.25 739.83 729.1 738.04 728.74 736 728.33 733.03 728.11 730.84 726.26 724 724.88 720.11 723.66 717 722.02 713.81 720.87 711.12 720 710.05 718.69 708.45 718.07 708.25 717.35 708.45 716.43 709.01 714.22 711.12 712.93 711.76 709.43 714.04 707.97 714.5 705.66 715.55 702.33 716.58 700.54 717.68 696.87 719.33 695.76 719.47 694.56 719.57 692.03 720.88 689.94 722.17 688.64 722.81 684.57 723.56 683 723.49 680.83 723.49 679.82 723.97 678.8 724.16 677.82 724.51 674.73 725.26 672.89 725.38 670.08 725.62 668.42 725.48 665.27 725.36 662.61 725.18 661.36 725.4 659.12 725.55 657.23 726.09 656.04 725.99 654.82 725.91 653.6 726.62 652.27 727.23 648.5 727.79 646.34 728.52 645.05 729.15 644.76 729.87 644.88 730.72 645.42 731.16 645.75 731.79 645.59 733.73 645.76 735.46 646.63 737.48 646.49 738.49 647.26 742.48 648.19 743.41 648.31 745.44 648.58 747.09 649.11 750.42 649.31 752.13 649.82 753.58 649.81 755.67 650.43 756.49 650.72 758.62 651.22 760.53 651.37 762.29 651.88 764.68 652.02 766.94 652.76 768.62 653.34 769.01 654.11 768.91 655.47 767.86 659.9 766.02 663.78 764.59 666.45 762.94 668.64 762.23 671.27 761.96 673.67 761.48 678.84 760.87 682.85 760.53 685.38 760.16 686.5 760.24 688.05 760.29 690.38 760.87 693.64 761.47 698.04 762.86 699.69 763.59 704.25 765.78 706.98 767.4 710.2 769 711.71 770.39 714.72 774.11"/>
  <polyline class="cls-4" points="535.2 761.55 536.17 762.18 537.19 762.6 537.87 762.36 538.87 760.96 539.62 759.76 540.37 758.57 540.6 756.4 541.15 755.51 543.25 753.77 547.81 749.16 552.06 746.18 555.12 744.42 555.85 743.72 559.52 741.59 562.58 739.84 562.96 739.25 563.86 735.34 565.59 730.8 565.71 729.33 566.07 727.74 566.81 726.57 567.95 723.85 568.63 721.16 570.01 717.72 572.03 713.48 574.36 709.08 575.94 705.34 576.16 702.69 575.89 702.08 575.21 701.79 573.71 702.16 571.42 702.76 568.12 703.78 566.05 704.12 564.95 704.46 564.02 705.5 561.53 707.31 555.54 709.52 552.89 710.73 552.11 711.87 550.41 712.58 549.15 713.74 546.86 714.81 545.79 715.66 544.5 717.75 543.53 718.7 541.55 719.63 540.4 719.91 539.29 720.25 537.46 721.8 536.85 723.12 536.27 723.49 533.82 724.41 533.06 725.11 532.15 726.13 530.61 727.96 530.36 729.15 529.5 730.68 529.13 731.29 528.01 731.62 527.55 732.13 527.54 733.71 527.28 734.9 526.38 735.92 525.41 737.38 525.58 738.4 525.58 739.26 524.39 742.44 524.27 744.57 525.03 746.66 525.14 748 525.38 749.69 526.45 751.98 527.45 753.88 529.03 755.67 529.96 757.15 531.12 758.39 532.06 759.87 533.48 760.38 535.2 761.55"/>
  <polyline class="cls-4" points="599.29 738.5 598.56 740.51 598.02 740.9 597.27 740.78 595.21 739.91 592.48 738.79 588.59 737.4 586.8 737.25 585.08 737.04 581.5 736.75 577.55 737.18 575.4 737.09 574.65 736.85 574.46 736.56 574.46 736.17 575.48 733.79 575.72 731.63 575.99 730.45 577.96 727.13 579.41 725.2 580.09 723.46 580.26 721.71 580.85 719.89 581.92 718.55 582.92 716.18 584.17 714.04 584.24 712.19 584.59 711.12 585 709.57 585.52 708.67 586.87 706.63 587.97 704.37 588.74 703.22 590.42 701.5 591.01 699.68 591.61 699.37 592.65 699.77 594.4 700.9 596.27 701.92 597.47 703.11 599.16 704.32 600.09 705.33 603.15 708.04 606.17 709.35 607.59 710.85 609.95 711.85 611.04 712.7 612.86 713.77 613.82 714.04 615.13 714.54 616.34 715.27 619.49 716.93 621.1 717.24 622.03 717.75 623.43 718.29 625.14 718.51 628.07 719.91 632.42 721.34 633.24 721.95 633.22 722.19 633.01 722.41 632.04 722.9 630.18 722.95 627.75 723.42 625.54 723.29 623.43 724.07 622.56 725.14 619.52 725.96 616.58 726.86 615.51 727.73 613.28 728.87 611.36 729.85 610.14 730.07 608.84 730.7 608.29 731.58 607.69 731.96 606.98 732.69 605 734.08 602.49 736.39 601.92 737.74 601.65 737.96 599.29 738.5"/>
  <polyline class="cls-4" points="668.5 716.32 667.43 716.37 665.66 716.54 663.57 716.53 660.51 716.2 656.54 715.86 651.57 715.66 649.74 715.12 647.24 714.76 644.16 714.59 640.95 713.94 636.38 711.76 631.52 710.83 630.21 710.22 628.36 709.66 625.6 708.55 618.74 705.33 617.9 704.69 614.91 702.88 613.2 701.69 610.78 700.26 609.54 699.56 606.17 697.63 604.6 696.33 600.37 693.33 598.17 691.2 594.14 688.46 592.58 686.66 591.12 685.24 589.62 682.87 588.43 681.67 586.14 679.13 584.35 676.09 581.75 671.47 580.72 669.62 578.54 664.09 578.01 661.71 578.03 660.06 577.21 656.58 576.71 655.64 575.48 653.01 574.84 651.24 573.56 647.76 573.73 646.11 573.95 643.95 573.44 642.03 573.22 639.86 573.22 637.58 573.15 635.91 573.46 634.28 573.32 633.5 573.15 632.24 573.6 631.22 574.39 628.64 574.33 626.38 574.7 624.44 574.58 622.26 574.87 619.64 575.19 616.09 575.67 612.73 576.55 611.2 576.89 609.62 577.64 607.95 577.93 606.32 578.4 603.74 579.24 601.18 581.31 597.48 583.52 594.88 584.37 592.84 585.65 591.7 586.77 589.93 588.21 588.49 590.05 587.44 590.85 586.31 592.26 584.34 594.3 583.02 595.74 581.1 596.86 580.28 597.85 579.33 599.53 578.13 600.65 576.83 603.81 574.23 611.5 570.34 613.22 569.17 614.96 568.5 616.32 567.45 618.09 566.33 620.04 565.89 623.33 564.83 628.75 563.5 631.04 562.42 634.63 561.67 636.41 561.53 638.61 560.8 640.25 560.85 643.96 559.75 645.18 559.68 646.15 560.17 647.62 560.65 649.26 560.58 652.37 560.31 655.09 560.26 658.52 560.8 660.14 561.6 661.33 561.88 663.76 561.4 665.14 561.43 666.53 561.96 668.73 563.15 669.85 563.46 672.55 563.34 674.61 563.69 680.52 565.95 682.41 566.5 685.16 567.59 686.99 567.67 688.1 568.01 691.09 568.88 693.54 569.81 694.2 571.07 695.22 571.97 696.5 572.62 699.06 572.96 700.61 573.33 705.47 576.19 708.63 578.33 710.21 579.16 710.95 579.87 713.46 581.68 714.83 583.19 717.22 585.14 718.37 586.4 720.75 588.37 722.62 590.34 724.25 592.57 726.49 594.66 728.16 596.85 730.71 600.58 732.29 602.83 733.5 605.01 735.57 608.23 737.61 612.95 737.95 614.53 738.97 617.84 739.41 619.82 740.18 622.89 741.26 628.57 741.13 630.78 741.38 632.93 741.47 635.18 741.3 637.32 741.4 640.48 741.3 642.17 741.42 643.51 741.14 645.07 741.28 646.86 741.35 648.45 741.57 649.63 741.49 650.85 741.3 652.62 740.77 655.44 740.48 657.58 739.8 660.27 738.82 662.65 737.83 666 737.07 668.14 735.06 673.83 733.07 677.62 732.29 679.73 730.97 681.78 729.54 683.72 726.73 687.66 724.71 689.98 720.05 694 718.49 695.31 717.25 696.49 713.15 700.09 709.96 702.22 708.27 703.9 706.81 704.83 699.26 708.86 695.93 710.36 691.38 711.58 688.05 712.11 686.28 712.74 684.62 713.48 679.81 714.47 678.29 714.86 676.73 715.23 673.6 715.95 668.5 716.32"/>
  <polyline class="cls-4" points="751.46 670.14 748.03 670.75 747.3 670.57 746.92 669.94 747.03 668.12 748.67 664.01 748.93 661.85 749.34 660.81 749.86 659.42 749.98 657.12 750.44 655.64 750.31 653.86 750.41 652.57 750.46 648.42 751.04 646.6 751.12 642.93 750.85 641.3 750.78 637.66 751.21 636.66 751.43 635.42 750.51 631.53 750.19 629.4 750.63 625.63 750.34 623.01 749.42 620.56 748.69 619.83 748.35 619.21 748.42 616.86 747.59 614.38 747.28 611.78 746.7 610.42 745.84 609.84 745.67 609.53 745.68 608.36 744.78 606.88 743.68 605.1 742.69 602.7 740.79 599.32 739.28 596.5 737.83 595.05 736.27 592.26 736.28 591.57 736.76 591.06 741.67 588.75 744.84 587.55 749.01 586.43 750.85 586.53 754.03 586.6 758.17 587.23 761.2 588.07 762.71 588.95 764.72 590.32 768.61 593.17 771.55 595.54 774 597.91 774.42 598.92 775.77 601.44 777.5 605.01 778.4 607.48 779.47 609.77 780.17 611.01 780.32 613.25 780.78 615.7 781.27 620.02 781.15 621.8 781.24 623.93 781.14 628.45 780.97 631.56 780.63 633.16 779.85 637.2 779.17 640.84 777.71 644.68 776.62 647.95 776.19 648.95 774.71 651.82 772.77 654.71 771.47 656.27 769.17 659.28 766.64 661.56 765.43 662.29 763.1 664.29 761.2 665.76 756.41 668.68 752.91 669.99 751.46 670.14"/>
  <polyline class="cls-2" points="448.11 659.91 446.48 660.35 446 660.86 445.47 661.29 445.22 661.2 445 660.62 444.35 660.32 441.14 660.16 439.93 659.91 437.21 660.1 435.72 660.06 434.07 660.18 430.31 659.57 428.65 659.62 427.22 659.13 425.15 658.92 423.57 659.72 419.98 659.25 418.94 659.08 417.69 658.86 416.9 659.06 416.43 659.57 415.85 659.76 415.19 659.47 414.25 658.45 413.2 658.07 410.51 658.19 409.55 657.7 407.85 657.45 406.72 657.38 405.11 657.16 401.69 656.24 398.94 656.1 397.24 655.39 395.05 654.2 393.19 653.98 388.49 653.38 385.02 652.5 383.35 651.77 381.16 651.07 378.27 649.63 376.11 649.36 373.9 649.02 369.79 647.35 367.85 646.89 365.51 645.85 362.53 644.5 359.44 643.75 358.13 643.1 356.09 642.27 354.93 641.49 350.35 639.82 349.04 638.7 345.18 636.78 343.75 635.81 341.63 635.03 341 634.21 339.6 633.21 337.51 631.92 336.31 631.22 334.93 630.66 333.35 629.35 330.53 626.39 327.76 624.34 326.77 623.4 323.39 620.51 320.99 618.58 319.56 616.62 318.7 616.04 313.97 611.15 311.83 609.41 310.52 607.85 308.89 605.62 307.14 603.99 306.56 602.65 304.06 599.39 302.86 598.18 302.16 596.94 301.24 594.97 298.76 592.14 298.15 590.34 296.67 587.96 295.92 587.27 294.99 584.84 294.1 583.31 292 578.67 290.96 576.81 289.79 574.62 288.9 571.15 287.92 570.22 287.73 568.96 287.22 567.55 285.86 565.05 284.94 564.51 284.48 564.07 284.84 562.69 284.54 561.55 284.42 560.07 283.53 558.54 282.33 554.94 281.97 552.9 280.46 546.2 280.17 544.08 279.86 543.42 279.42 542.41 279.4 540.53 279.11 539.37 279.1 538.25 278.89 537.02 278.91 535.41 278.01 532.16 278.11 530.53 277.96 528.78 277.36 524.57 277.41 522.44 277.4 520.66 277.33 516.51 276.9 512.65 276.9 510.43 276.22 508.69 276.02 507.42 276.8 503.83 276.94 502.69 277.13 500.64 277.04 498.95 277.33 496.17 277.28 494.28 277.62 493.29 277.53 489.76 277.77 488.58 277.58 486.65 278.5 482.26 279.1 480.92 279.98 479.41 280.68 475.77 280.86 474.04 281.53 471.32 282.38 466.86 282.7 464.3 283.69 461.9 283.69 460.27 283.99 459.66 284.94 456.27 285.33 453.78 286.25 451.31 287.03 448.24 288.09 446.88 288.5 445.86 289.18 444.6 289.6 443.08 291.18 438.41 291.06 436.95 291.62 434.67 294.05 431.8 295.11 429.96 295.28 428.06 295.8 427.13 296.19 425.44 297.01 424.81 298.03 423.9 298.64 422.1 300.05 420.14 301.72 417.47 303.5 413.48 304.85 411.93 305.9 410.57 306.66 409.89 307.58 408.4 308.53 407.43 309.2 406.17 310.49 405.03 311.39 404.01 312.32 403.03 314.62 400.99 317.08 398.15 318.85 396.07 319.39 394.68 319.58 392.93 320.07 390.53 320.55 389.07 320.74 388 320.4 386.93 318.17 384.35 317.2 382.9 316.66 381.52 316.08 380.66 314.81 379.99 314.64 379.38 314.37 378.36 312.85 376.99 312.04 375.86 310.81 373.23 309.16 371.51 308.81 369.95 308.35 368.95 307.58 367.31 306.19 363.9 304.88 362.3 303.98 361.77 303.42 360.89 303.3 359.24 302.06 356.13 301.41 355.33 300.82 353.99 300.07 353.31 298.57 350.47 298.05 348.58 297.28 346.94 296.16 345.17 295.16 343.28 294.56 340.51 294.19 339.44 293.34 338.85 292.86 338.34 292.56 336.72 292.05 335.79 291.44 334.48 290.74 333.24 289.63 330.01 289.14 328.58 287.83 326.03 287.71 324.7 287.07 322.46 286.03 320.61 285.1 317.69 283.75 316.14 283.11 313.89 281.36 311.31 281.15 309.58 280.42 307.42 279.96 305.96 278.3 301.85 277.51 300.69 277.02 299.75 276.44 297.9 275.87 296.1 275.44 294.1 275.37 293.01 275.03 290.97 274.61 289.45 273.76 285.99 273 284.34 272.84 283.1 272.94 278.76 272.06 276.27 271.53 274.4 270.62 271.47 269.95 268.26 269.76 266.53 269.39 264.96 269.14 262.35 268.8 260.27 268.63 258.01 267.83 253.52 267.5 252.4 267.32 251.33 267.08 249.29 267.13 248 266.84 246.49 267 245.43 266.82 241.85 266.3 239.5 266.64 236.6 266.37 235.07 266.3 233.49 265.63 232.28 265.41 231.04 265.92 228.13 266.28 225.48 265.87 221.28 265.35 219.87 265.28 218.51 265.7 216.52 265.7 214.09 265.99 213.12 266.03 209.76 266.25 208.21 266.08 206.44 266.55 204.05 266.72 202.35 266.4 197.95 266.67 196.77 266.77 195.69 267.2 193.29 267.79 190.48 267.74 188.75 267.96 187.13 268.29 182.02 269.22 178.13 269.46 174.98 269.85 173.45 270.17 171.36 270.6 170.82 271.13 169.88 271.09 168.69 271.52 165.81 272.4 164.28 273.93 159.06 275.19 157.43 275.53 156.78 275.48 155.56 275.71 154.89 275.85 153.72 276.04 152.67 277.09 150.81 277.24 149.78 277.51 149.17 279.81 145.19 280.8 142.81 281.46 141.06 282.67 139.36 283.09 138.34 283.53 137.34 285.57 135.04 286.27 133.33 286.92 132.54 289.14 131.39 292.52 128.5 294.31 127.89 295.48 127.12 299.07 126.37 301.19 126.42 302.65 125.95 303.93 125.83 307.5 125.69 310.35 126.7 312.8 127.14 314.28 127.58 316.3 127.97 319.04 129.09 321.45 131.01 323.68 131.66 327.81 134.29 328.98 135.52 330.75 136.64 331.31 137.54 332.57 138.68 335.49 140.58 336.83 142.13 339.47 146.22 341.12 147.96 342.2 148.79 343.19 150.71 343.97 151.38 344.58 152.21 346.49 155.12 347.61 156.88 348.54 157.39 348.85 158.53 350.36 160.4 351.2 161.98 351.62 163.48 352.35 165.14 354.03 167.79 355.21 168.56 355.85 169.85 355.92 171.85 356.46 172.76 358.05 175.51 358.98 176.04 359.56 176.43 359.49 177.77 360.68 179.96 362.31 184.59 362.84 185.5 363.72 188.48 365.24 189.87 365.44 190.5 365.05 191.52 365.24 192.73 368.48 201.06 369.47 202.96 370.37 206.39 371.05 208.62 371.49 210.1 372.12 212.34 372.44 214.93 373.83 218.36 374.8 220.28 375.06 221.47 375.64 222.81 375.58 224.44 376.33 228.06 376.91 229.41 377.2 231.04 377.96 232.21 378.03 233.11 378.39 234.2 378.54 235.51 379.68 239.66 380.4 241.34 380.75 243.4 380.9 245.16 381.25 246.76 381.23 247.9 381.33 249.24 381.94 250.07 383 251.91 383.18 253.17 383.57 255.19 383.66 257.03 384.32 259.73 384.76 261.72 386.26 266.95 386.58 269.54 386.97 271.06 387.82 272.14 387.82 272.75 387.84 274.86 388.28 276.32 389.18 280.4 389 282.42 389.68 286.51 389.95 288.16 390.44 289.59 390.54 291.88 390.97 293.87 391.95 294.82 392.23 295.51 391.99 297.05 392.31 302.34 392.97 306.01 393.75 311.01 394.11 313.56 394.82 315.73 394.71 316.45 394.64 317.16 395.25 318.54 395.23 319.25 395.13 320.39 394.84 321.9 394.84 324.21 395.68 328.21 396.07 329.7 395.79 330.99 396.13 332.06 396.2 333.15 396.69 334.09 397.14 335.11 396.68 337.08 396.88 339.68 397.58 340.92 397.99 341.94 398.38 343.98 399.43 345.32 400.18 345.54 401.68 345.97 403 347.06 403.85 347.16 405.36 346.75 406.04 346.9 407.37 346.94 408.88 347.12 410.5 346.85 413.05 346.85 415.1 346 416.68 345.66 419.96 345.12 422.67 345.68 424.28 345.37 427.12 344.86 430.55 344.9 432.24 345.63 433.46 345.58 434.77 345.66 436.02 345.58 438.9 346.04 440.15 345.85 444.13 345.48 445.2 345.1 445.78 343.76 447.02 342.59 447.19 341.89 446.73 339.94 446.73 337.37 446.43 336.7 446.07 334.65 445.9 332.92 444.95 330.96 444.68 328.83 444.23 325.9 443.62 324.59 443.5 323.26 443.06 322.26 442.79 320.59 441.7 318.31 441.91 317.24 442.09 315.51 441.8 313.88 440.97 313.23 440.83 312.91 441.14 311.33 440.63 308.44 440.9 306.74 440.92 305.63 440.32 303.94 439.85 302 439.99 300.21 439.73 298.6 439.81 297.32 439.68 295.61 438.66 292.79 438.69 291.61 438.13 289.76 437.91 288.54 438.2 285.97 437.96 283.81 437.62 283.56 437.74 281.5 437.06 280.23 436.57 278.37 436.62 275.98 436.31 271.01 435.77 268.18 435.62 265.91 435.72 262.14 435.19 260.94 435.63 260.08 435.31 258.54 435.33 257.35 434.68 253.69 434.39 251.11 434.85 249.63 435 248.15 434.29 244.6 434.15 242.19 434.39 239.76 434.11 234.84 434.38 232.79 434.07 231.19 433.76 229.1 434.14 227.57 433.9 224.6 433.7 223.37 433.34 222.39 433.75 220.91 433.9 217.31 433.68 214.25 433.76 212.07 433.44 209.98 433.65 208.74 433.65 205.93 433.8 204.27 434.48 202.98 434.39 202.26 433.95 201.8 434.04 201.33 434.32 200.12 434.22 198.91 434.07 196.65 433.75 192.54 433.9 188.95 434.48 185.76 434.29 183.43 434.38 182.19 434.22 179.96 434.99 176.38 434.67 175.34 434.7 174.17 434.46 171.53 434.97 168.32 435.55 164.58 435.96 160.01 435.96 158.48 435.87 156.03 436.42 153.72 436.65 152.02 436.33 150.37 436.38 149.03 437.62 146.41 438.47 142.44 438.73 140.79 439.7 135.96 440.15 135.45 440.73 134.57 440.7 132.47 441.53 130.89 442.65 128.16 443.18 126.27 443.98 125.13 444.66 122.92 446.32 117.86 447.92 115.6 449.33 112.67 450.49 109.5 451.83 107 452.61 106.32 453.16 105.42 454.21 103.58 454.94 102.87 455.96 101.47 456.61 101.15 457.81 100.42 459.5 98.75 460.72 96.59 463.1 95.12 464.54 93.67 466.86 92.62 468.05 91.87 470.6 90.56 472.09 89.66 473.11 89.24 474.37 89.36 477.14 88.74 478.43 88.86 480.16 89.07 481.75 88.76 483.22 89.2 484.82 89.54 485.84 89.95 487.59 90.63 490.26 91.8 491.28 92.7 492.54 93.38 494.41 94.4 495.46 95.29 495.92 96.75 496.48 97.16 498.16 97.87 498.64 98.36 500.17 99.72 500.88 100.93 502.29 102.9 504.77 105.72 505.63 107.76 508.72 111.89 511.25 116.11 512.52 117.25 513.1 118.59 513.94 120.15 514.69 121.82 515.82 124.06 517.32 125.93 518.6 127.07 518.92 128.18 520.12 130.37 521.65 131.71 522.73 134.99 523.85 138.2 524.61 139.36 525.15 140.75 525.9 141.93 526.19 143.08 528.25 147.77 529.8 150.56 530.07 151.73 530.85 153.35 531.09 154.57 532.51 159.4 533.04 160.81 533.21 162.08 533.86 164.31 534.32 165.31 534.98 167.06 534.96 168.71 535.3 170.28 536.12 175.24 537.02 177.72 537.68 179.44 537.83 180.76 537.58 181.97 537.48 184.2 537.73 185.35 538.16 187.32 538.82 189.07 538.94 189.91 539.28 192.95 540.14 197.35 540.04 199.56 540.52 201.99 540.89 204.01 541.03 205.34 541.28 207.97 541.97 209.67 541.74 210.81 541.9 214.01 541.71 216.79 541.9 218.43 542.17 222.18 542.68 224.58 542.9 226.16 542.17 227.83 541.93 229.54 542.17 231.5 543.12 234.4 542.44 238.23 542.22 241.66 542.61 244.02 542.2 245.54 541.73 248.29 542.32 249.67 542.15 251.43 541.73 252.44 541.27 254.43 541.27 255.62 540.89 257.06 540.93 259.37 540.11 264.15 540.13 265.96 540.62 266.94 540.5 269.04 540.08 270.06 539.91 271.98 539.57 273.09 538.86 275.26 538.94 276.96 538.72 278.17 538.41 282.54 537.75 284.27 537.14 286.56 537.05 287.84 537.09 289.06 536.18 291.07 535.18 294.4 534.94 297.07 534.67 298.21 534.06 301.15 534.1 302.32 533.45 304.09 533.4 306.32 532.99 307.3 531.76 308.98 531.27 310.89 531.34 312.59 530.14 315.68 529.54 316.53 528.62 318.52 528.43 319.64 528.81 320.69 528.72 321.49 528.3 322.04 527.01 324.13 526.68 325.25 526.17 326.64 526.29 327.64 525.15 328.85 523.88 332.92 523.98 335.74 524.68 336.54 524.78 337.28 524.47 338.01 524.53 338.59 525.46 339.58 527.18 341.72 529.9 343.33 531.15 343.52 531.92 344.22 533.29 344.78 534.18 345.8 535.61 346.78 538.26 347.99 541.18 348.45 542.76 348.79 543.54 349.93 545.21 351.15 547.28 351.49 548.15 352.07 549.43 353.69 551.16 355.32 553.15 355.42 554.1 355.91 555.21 356.74 556.45 357.42 559.32 359.85 561.66 361.37 563.07 361.88 563.79 362.61 566.05 364.7 568.14 365.5 569.26 366.77 570.87 367.57 571.33 368.08 571.44 368.95 571.76 369.58 574.31 371.84 576.3 373.23 577.27 374.18 579.47 375.85 582.06 378.06 582.72 378.86 583.54 379.96 584.28 381.63 587.33 383.87 588.64 384.5 590.22 386.28 591.1 387.81 592.24 389.07 593.11 390.14 595.16 391.94 595.79 393.25 596.59 394.36 598.41 396.89 599.36 397.84 599.46 398.47 601.08 400.64 602.1 402.02 605.1 406.73 606.16 408.07 608.18 411.37 608.97 412.03 609.57 412.87 610.21 415.13 611.41 416.81 613.36 419.67 614.13 420.84 614.86 423 616.21 425.02 618.38 429.12 619.21 430.68 621.54 435.1 622.22 438.28 624.11 441.2 624.36 442.1 624.96 443.41 626.37 446.82 627.37 450.14 627.99 451.48 629.09 453.74 629.12 454.85 629.51 455.39 630.19 456.17 630.72 459.5 630.94 461.9 631.59 463.11 632.49 464.16 632.55 464.52 632.34 465.25 632.08 466.47 632.71 467.78 633.37 473.37 633.79 474.41 634.05 475.74 634.82 477.4 635.24 479.87 635.24 481.48 635.77 482.43 635.97 482.96 635.5 483.83 635.77 485.93 635.63 487.21 635.75 488.52 635.95 490.4 636.18 492.1 636.5 494.74 636.27 495.89 636.38 497.68 636.38 501.62 636.68 503.13 636.75 505.38 637.01 506.96 636.65 508.44 636.86 509.56 637.11 512.19 636.79 513.25 636.87 515.88 636.5 516.99 635.95 519.33 636.21 520.91 635.87 522.44 635.05 524.99 634.87 527.73 634.92 528.99 634.68 530.07 634.41 532.23 633.52 534.24 633.49 534.95 634.05 535.85 634.12 536.57 633.56 537.96 631.84 543.96 631.35 544.91 630.53 547.46 629.92 550.57 629.68 551.1 628.66 551.52 627.54 552.34 625.99 553.21 620.89 554.85 617.9 556.18 615.7 557.36 612.08 558.54 610.8 559.21 608.81 560.11 604.92 562.49 603.22 563.68 601.45 564.8 600.04 565.33 598.8 565.31 597.85 564.78 597.17 564.02 593.34 560.14 592.31 559.26 591.56 558.56 590.28 557.42 589.13 556.18 588.08 555.31 586.68 554.77 585.56 553.96 583.45 552.7 582.09 552.12 580.07 551.27 578.03 550.88 576.74 550.25 574.87 549.72 572.47 549.21 568.94 549.03 566.61 548.6 565.01 548.92 562.36 549.03 558.71 549.67 557.14 550.52 555.75 551.07 553.42 551.61 552.47 552.12 549.84 553.8 547.59 555.43 545.02 557.18 543.87 558.91 542.66 560.12 539.62 562.86 536.9 566.41 535.95 568.35 534.4 571.14 533.2 573.31 531.76 576.71 530 581.2 529.05 585.06 528.18 589 527.67 593.32 526.67 600.01 526.58 601.78 526.97 606.1 526.8 607.7 526.56 609.41 527.08 611.81 527.65 613.15 528.02 614.72 528.3 616.35 530.19 622.67 531.12 624.61 532.19 627.4 534.45 630.93 535.4 632.38 537.14 634.98 540.26 638.6 543.88 641.77 544.02 642.42 543.8 642.67 542.37 643.17 542.36 644.02 542.15 644.22 540.21 644.73 537.83 645.23 535.98 645.8 534.81 646.55 531.87 647.92 529.49 648.45 526.94 649.29 519.09 652.02 513.55 653.23 509.77 653.81 507.99 654.42 505.83 654.97 502.07 655.9 499.57 655.95 497.55 656.02 496.07 656.48 493.95 656.75 492.86 656.46 491.6 656.32 484.91 657.82 482.22 657.9 479.64 658.67 477.9 658.55 474.23 658.74 471.31 658.55 470.05 658.72 461.3 659.59 459.9 659.98 458.7 660.11 457.63 659.72 455.61 659.37 454.47 659.65 452.24 659.54 450.52 659.61 448.11 659.91"/>
  <polyline class="cls-4" points="560.68 638.43 561.7 639.02 563.31 639.17 563.68 638.66 563.68 637.51 563.77 635.2 563.51 630.61 563.63 628.8 563.55 626.15 564.09 624.74 564.16 620.9 564.33 619.22 565.32 617.32 565.71 616.25 565.61 614.07 565.73 612.25 566.25 609.41 566.73 607.48 567.7 605.08 568.78 602.31 569.57 600.7 574.66 590.84 576.47 588.32 577.71 586.18 579.97 584.11 581.62 581.89 582.04 580.88 582.8 579.7 583.86 578.84 585.93 576.58 586.72 575.42 588.86 573.23 589.06 572.48 588.87 571.7 586.72 569.03 585.65 567.19 584.86 566.55 582.41 564.15 580.29 562.93 576.76 561.16 575 560.97 572.81 559.8 569.99 558.77 568.17 558.66 566.61 558.29 565 558.02 564.01 558.51 562.99 558.95 559.71 559.49 557.04 560.21 555.51 560.6 554.08 561.6 552.08 563.91 550.89 564.66 549.43 566.09 547.45 567.98 546.26 569.2 545.38 571.19 544.11 572.8 542.9 574.48 542.42 575.96 542.03 577 540.74 578.6 539.89 579.69 539.59 580.83 539.67 583.15 539.6 585.01 538.73 586.55 538.62 587.9 538.45 589.15 537.42 591.02 537.07 593.56 536.32 595.22 536.05 597.36 536.51 600.76 536.39 602.05 536.54 604.26 536.56 606.52 537.05 608.9 537.02 610.53 537.41 613.03 537.99 614.38 538.16 615.65 538.57 617.16 539.31 618.35 541.42 621.55 541.81 623.57 542.81 624.49 543.88 625.83 545.09 628.01 547.81 631.05 549.66 632.58 552.6 634.45 554.07 634.93 555.75 635.64 557.64 637.12 559.03 637.66 560.68 638.43"/>
  <path class="cls-5" d="M444.78,941l-1,.17-1.84.12-2.26.07-1.51-.41-2.12-.29-2.12.17-2.57-.15h-1.68l-1.17-.25-2.28-.27-1-.5-0.66-.2-1.39.54-1.17.19-0.7-.29-1.12-.32-2,.27-1.92-.48-1.33-.14-1.17.29h-2.33l-2.52-.87-3.62-.24-2.58.34-1.36-.09-0.88-.56-1.27-.15-1.29-.17-3.43-.42-1.29-.63L390,936l-1.21.25h-0.78l-1.19-.75-3.13-.73-0.76.12h-0.7l-0.65-.8-0.56-.39-1.65-.29-2.12-1.26-3.91-1.85-0.71-.75-3.3-3.45L368,923.76l-1.24-.68L366,921.86l-1.22-1.68-0.26-.65,0.2-1.07-0.15-.27-0.94-.56-0.39-.58,0.2-1.09-0.1-.75-1.07-2.81-0.87-1.07-0.15-.77,0.44-1L362.1,908l0.08-.77-0.36-.63-0.76-1.17-0.37-2.48L361.1,901l0.61-2.3-0.19-1.19-0.37-3.1,0.26-1.14,1-1.39,1.09-3.72,0.75-1.19-0.15-1.44,0.81-1.1,1-2.31,0.87-1.07,0.73-1.19,0.9-1,0.32-1.14,0.58-.85,0.49-1V874.6l-0.22-.27-0.76-.2L366.68,873l-3.11-.27-1.51-.39-1.84-.1h-1.63l-1-.44H356.5l-1.78-.6-1.65-.8-3.13-.87L349,869l-0.83-.61-1.19.12h-2.86L340.85,867l-2.69-.21-2.16-.25-4.47-1.31-1.12-.82-1.72-1.16h-2.57l-2.67-.71-1.26-.66L321,860.61l-1.33-.27-1.53-.39-1.65-.27-1.58-.36-1.39-1-0.88-1-1-.48h-3.15L307,856l-1.1-.8-1.34-.59-3.23-2.07L299.9,852l-2.84-.53-1.28-1.12-1.5-1.39-1.22-.22-1.26-.68-1.63-1.26-1.8-.6-2.26-2.09-3.31-1.51-1.07-1.33-2.46-.9-0.9-1-1.14-.78-0.59-.85-0.85-.59-2.11-1.26-2-1.43-1-1.41-1.43-.5-1.84-.58-1.07-.87-0.59-1.33-1-1.82-0.85-.61-1.73-1.63-0.25-1.19-0.37-.6-1-.41-1-.93-1.34-2.5-1.94-2.4-1.77-4L254,812.1l-0.82-1.1-0.73-2.18,0.12-1.78-0.12-1.7,0.37-1.39-0.54-1.87,0.31-2.07-0.15-1.75L252.7,795l0.75-2.19v-0.68l-0.8-1.63-1.55-1.38-0.7-.14-1.41.48-3-.66-1.16-.76-1.68-.73-2.07-.82-1.8-.12-0.73-.24-0.7-.75-1.62-.8-2.94-1.87-2.58-1.28L229,779.84l-1.77-1.62-0.82-1.1-1-.46-2.92-2.85-0.41-1-0.61-.83-1.36-1.53L219,768.57l-0.68-.76-1.05-1.36-1-.88-0.42-1.48-2-3.35-0.8-2.09-0.93-2.43-0.51-1.92-1.15-1.71-0.1-1.36L209.68,749l-0.27-4,0.71-1.7,0.34-2-0.19-.27-0.92-.55-0.41-.56v-1.36l0.48-1,0.66-1.77L210,734.2l0.39-3.47,0.68-2.74-0.17-1.43,0.42-.53,1-1.43,1.7-4.1,1-2.38,1-.93,0.41-1.51,0.87-1,0.54-1.39,1.65-1.26L221,708.7l2.18-1.7,1.68-1.68,1.73-2.6,1.24-.68,1.48-1.9L231,699l0.76-1.16,0.82-.63,1.73-1.65,0.39-.58-0.07-1.21,0.37-1.48-0.25-2.53-0.44-1.5,0.1-1.27-0.22-1.17,0.24-2.18,0.63-.83,0.46-.94-0.22-1.12,0.54-1.8,0.87-1.07,0.51-2.4,0.61-.82,2.07-1.31,0.37-.58,1.07-.87,1.16-1.24,1.53-.88,0.92-1,1.55-1.34,1.38-.54,2.52-2.31,1.44-1,0.7-.75,1.92-1.46,1.72-.68,1-.89,2.5-1.34,1.63-.8,0.53-.9,0.94-.54,1-.14,0.63-.26,1.24-1.67,1.89-1,0.58-.85,0.73-.71,2.12-1.75,4.18-2.07,1.94-1.45,1.09-.82,3.16-1.67,1.39-.54,1.44-1.44,3.18-1.64,1-.9,2.26-1.12,1.8-1.57,0.85-.61,2.12-1.24,1.26-.66,0.87-.58,2.91-1.43,2.18-1.19,0.87-1.07,1.82-1.09,2.75-1.09,0.82-.64,0.29-.6-0.1-.32-0.83-.65-0.65-.8-0.32-1.58-0.54-.43-1-.94-3-2.33-1.17-1.24L300.9,616l-1.12-.8-2-1.82-0.8-1.14-0.9-1-0.56-.86-2-3.32-1-1.84-0.71-.73-0.88-1-0.65-2.24L289.5,600l-1.77-1.12-0.58-.87-1.53-1.85-1.11-1.79-1-2.36-0.31-1.63-0.65-1.28-0.34-1.1-0.9-2-1.38-2-0.25-1.21-0.73-1.67-0.31-1.63-1.12-1.29-0.77-1.2-1-1.34-0.17-1.56-0.27-2-1.11-1.29L273,569l-0.27-1.19v-1.65l-0.26-1.63-0.9-1.53-0.51-1.39-1-1.92-0.71-2.18-0.17-1.29L269.1,554l0-1.43-0.61-2.18-0.31-1.63-1-2.87-0.53-4.44-0.41-1.5,0.19-2-1.09-2.29-0.15-.83,0.25-1.7-0.07-1.68,0.27-3L265.31,526l-0.87-1.55-0.61-2.72,0.1-3.13-0.1-1.68,0.29-.7,0.49-1L264.46,514l0.15-1.24-0.34-.5-0.39-1,0.29-1.58v-2.09l0.51-2.41-0.37-1.56L264,500.71l-0.22-1.89,0.58-1.84,0.54-4.78,0.43-2.48-0.1-1.29,0.39-3.38,0.81-4.49,0.36-3V476l0.46-2.45,0.25-1.19,0.85-.59,0.48-.49,0.32-1.11L269,467.77l0.44-1.51,0.7-3.14,0.24-3.15,0.44-1,0.41-2.48,0.63-.81,0.39-1,0.68-2.69,0.56-1.36L274,448.2l0.08-2,0.88-2,1-1.89,1.5-4.78,1.43-1.48,0.36-1.07,0.44-1.48,0.25-1.21,1.07-2.77,0.87-1.55,1-2.89,0.78-2.6,0.34-.63,0.87-1.55,1-1.94,1.36-1.53,0.56-1.85,0.78-.66L289,412.9l0.87-1,1-1.84,1-1,0.32-1.1,0.73-1.22,0.27-1.17,0.68-1.22,1.34-1.09,0.46-1,1.56-1.82,1.29-1.58,1.65-1.75,0.34-1.09,0.48-.51,0.58-1.33,0.88-1.53,1.21-.73,0.73-.71,0.82-1.12v-1.27l-0.75-1.67-1-.85-0.42-1-1.31-1.58-1.3-2.67-3.33-5.83-2.07-3.7-2-2.77-2.09-4.18-0.2-1.52-1-2.24-0.94-1.5-0.42-1.5-1.36-2-0.37-1-0.58-.88L285,352l-0.17-1.27-0.27-1.17L283,347.75l-1-1.92-0.37-1.09-2-3.79-0.43-2-0.42-.54L277.35,336l-1.7-3.6-0.9-1-0.15-.82-0.22-1.22-1.87-2.94-0.36-1.58-0.44-1-0.87-2.5-0.27-1.67-0.42-1.5-0.1-2.31-0.8-2.09-0.54-.9-1.17-1.72-1.36-3.93-2.26-4.5L263.7,301l-0.7-1.25-0.27-2.12-0.93-1.51-0.2-.68,0.29-.65,0.2-.56-1-3.23-0.12-1.8L260.7,288l-1-1.38-0.36-1.1-0.45-2.5,0.17-1.61-0.22-1.53-0.46-1.5,0.15-.75,0.63-.37,0.42-.49-0.1-.73-1.77-2.6-1-2.87-0.32-2.09-0.39-2v-1.77L255.78,263l-0.14-1.78L255,258.49l0.15-1.31-0.54-3.25-0.46-1.5-0.31-2.57-0.09-2.5,0.2-1.17L253.87,244l-0.51-1.36V240l0.2-2.43L253.28,236l0.17-1.21,0.05-2v-1.34l-1-1.38-0.31-1.14,0.05-1.31-0.07-1.7,0.19-.77v-2l0.71-1.72,0.36-1.11-0.49-2.4-0.9-2,0.34-1.48-0.14-1.12,0.41-2.31,0.51-1,0.32-1.6,0.43-1L253.72,206l0.25-2-0.7-1.7,0.22-1.14v-1.73l0.7-1.6,0.22-1.72,0.49-1.43,0.2-1.6-1.1-1.9-0.27-1.55,0.41-1-0.1-1.27,0.31-1.56,0.39-1.05,0.83-4L255.5,179l0.5-1.4,0.37-2.52,0.59-.87,0.37-1.05,0.2-2.19,0.27-1.19,0.49-1.9,1.11-2.28,0.1-1.34,0.29-.68L260,161l0.26-1.15,0.66-.8,0.15-1.29,0.48-1.94,1.53-2.28L263,152.32l0.44-1.5,0.71-3.62,0.83-2.06,2.09-2.24,0.73-2.65,1-3.81,1-1.36,0.59-1.34,0.39-.58,0.76-.2,0.65-.31,1.8-3.48,0-.71,0.17-.68,1.28-1.14,0.63-1.29,0.75-.71,1-1,3-2.31,2.29-2.06,1.85-1.05,1.43-1,1.72-.7,2.4-1.44,1-.41,1.28,0.15,1.67-.27,1.17-.75,2.14-.66,2.77,0.22,1.29-.1,1.75,0.09,1.5-.24,1.31-.31,0.66,0.29,2.12-.15,2,0.87,1.9,0.49,2.23-.14,1.24,0.2,0.93,1,1,0.48,1.41,1,2.72,0.05,1.22,0.19,0.73,0.71,1.6,0.8,1.65,1.24,2.85,1,0.83,1.07,2,0.88,0.61,0.83,1.11,0.34,0.59,0.85,4.49,3.23,0.42,1,0.56,0.87,2.16,0.75,1,1.36,1.31,2.07L347,135l1.46,1.9,1.11,0.82,0.78,0.66,1,1.94,0.48,0.48,0.61,0.83,0.68,0.76,0.75,1.17,1.38,1.53,0.75,1.67,0.59,1.33,0.53,0.43,3.42,3.81,0.58,0.88,0.8,1.61,1.38,3.43L364,159l0.71,1.21,1.36,1.53,1.61,2.69-0.08.83,0.1,0.78,0.44,0.54,0.56,0.87,0.85,1.58,0.09,1.34,0.17,0.8,0.76,0.68,0.94,1.5,0.85,1.05,1.5,2.84,0.59,1.82-0.39,1v0.77l0.55,0.93,0.41,1,0.73,1.68,1.16,2.7,0.58,1.34,0.24,1.22,0.39,1.05,0.32,1.6,1.8,4.45-0.1,1.24,0.68,1.22,0.56,1.38,0.85,1.55,0.27,2.16,1.16,1.73,0.76,3.09,0.92,4.37,1.46,2.4,0.42,1.5,0.61,1.82,0.17,1,0.92,4.83,0.49,1.41,0.2,1.73,0.61,2.28,0.27,0.7,1,2.26v1.15l0.37,0.61,0.87,2.5v2.09l0.51,1.92,0.44,1,0.34,1.12,0.27,3.25,1,1.85,0.34,1.61,0.46,2.91,0.49,1.41-0.26,1.33,0.88,2.87,0.56,1.85,0.14,1.17,0.25,1.48,0.66,1.28,0.2,1.22-0.32,1.33,0.51,0.92,0.27,1.65,1,2.33,0.49,1.94,0.1,1.14,0.19,1.11,0.15,2.41,0.37,1.09,0.53,3.35,0.65,4.3,0.76,2.62,0.41,3.94-0.14,1.9,1.12,1.26,0.66,1.26,0.32,2.12L406.09,302l-0.27,1.12,0.46,2.92,0.82,3.54,1,3.3v1.27l0.22,3.11-0.39,2,0,1.74-0.37,1.38,0.53,0.87-0.07.82,0.53,1.33,0.25,2.38,0.26,1.6,0.29,3.57,0.22,0.25,2,0.49,2.06-.36,1-.48,1.07-.39,2.35,0,1.14-.31,1.62-.32,1.56,0.31h1.12l1.11,0.63,0.82-.53,1-.46,1.36-.56,1.48-.46,1-.46,0.42-.54-0.2-1.46,0.55-.93-0.19-1.85-0.36-1-0.49-5.76-0.31-1.17-0.32-1.6-0.08-1.6,0.58-.75,0-.31-0.83-1.12-0.87-4.45,0.09-2.14L428,304.33l-0.15-2.74-0.58-3.26-0.41-1-0.1-1.34-0.31-1.61-0.41-3v-3.54L426,286.67l-0.41-2.16-0.12-1.14-0.26-1.56,0.17-1.77-0.42-1.48-0.12-2.31-0.48-1v-0.71l-0.49-1.82,0.19-3.43-0.29-.66-0.32-5-0.4-1.15,0.15-.73L423,258.33l0-3v-2.11l-0.58-2.82,0-1.29v-1.33L421.83,246l-0.29-4.54-0.22-1.17,0.24-2,0.44-1.45-0.14-.78,0.14-1.51-0.85-3,0.1-1.36-0.85-1.58-0.1-.75,0.41-2.5,0-1.8v-1.45l0.41-.54,0.54-.94v-0.78l-0.61-1.3-0.07-1.11-0.34-1-0.17-1.24,0.46-1,0.59-1.31-0.38-1.46,0.24-3-0.14-2.69,0.34-2.58-0.37-3.45,0.1-4,0.25-3.94-0.12-1.8,0.07-1.77-0.2-1.09,0.27-1.58-0.39-2.5,0.17-1.77,0.51-2.38L422,177l0.27-2.14-0.2-1.05,0.32-1.46-0.22-2.55,0.22-1.72,0.83-4.95,0.82-3-0.32-1,0.17-4.49L424,153.5l0.63-2.75,0.12-1.34-0.41-2,0.27-2,0.83-1.58V141l0.46-1.85,0.94-2.46,0.32-2.07,0.49-1.9,1.07-2.79,0.19-1.28,0.53-2.84,1-1.89,0.17-1,1-1.44,1.09-2.77,0.51-.92,0.51-1.43,0.87-1.55,0.34-2.06,0.58-.88,1.5-2.34,0.39-1.55,1.55-2.79,0.39-1.05,0.7-1.24,1.21-2.65,0.94-1L442.82,98l3-3.69L447,93l0.61-.85,0.87-1.05,1.17-.76,0.48-1,0.94-1,1.65-1.26L454,86l1-.46L457.24,84l1.29-1.12,0.92-.51L461.52,81l2.11-1.27,1.82-.61,1-.87,2.11-.78,1.53-.43h2.16l1-.34,2.75-.63,3-.17,1,0.46,0.8,0.09,1.5-.44,1.68-.12,2.87,1,2.94,0.44,1.48,0.44,1.07,0.87L493.63,79l1.43,0.49,1.77,1.61L498,81.35l1.55,0.39,0.59,0.37,0.32,1.11,0.88,1.05,2.51,1.34,2.4,0.49,0.44,0.51,2,2.82,1.17,2.21L511,92.87l0.12,1,0.51,0.41,1.24,0.2,0.77,0.22,0.66,0.76,0.93,2.43,1.28,1.63,1.07,1.32,0.8,1.62,0.87,1.56,1.46,0.92,0.87,1.05,1,1,0.29,0.68,0.53,2.84,2.14,2.69,1.33,1.07,0.41,1,0.27,2.14,0.58,0.87,0.54,0.9,1,1.41,0.58,1.82,0.7,1.24,0.6,1.31,0.85,1.09,0.51,0.94,1.17,2.69,1.23,1.65,0.42,1.51,1.56,2.77,0.36,1.11,0.56,1.36,1.11,1.8,0.37,2.18,1.52,2.35,0.56,1.36,0.94,4.33-0.12,1,0.87,0.54,0.76,0.7,1,4.76,0.92,1.48,0.92,2.94,0.68,2.7,0.87,3,0.17,1.82-0.17,2.11,0.19,2.6,0.92,2,0.68,3.65,0.39,2.5,0.44,1.5,0.07,1.87,0.36,2.51,0.41,1.53,0.27,3.6v1.62l0.42,1,0.27,1.63,0.12,3.7,0.34,1V203l0.61,1.21v5.55l0.46,1.48-0.37,1.43,0.25,0.59,0.58,1.38,0.37,1.55-0.22,2.11,0.2,1.6-0.17,3.21,0.15,1.31,0.59,0.83,0.41,1.53,0.22,2.5-0.41,1,0.14,1.41-0.27.71-0.5,3.37-1,.87v0.2l0.49,0.49,0.34,0.61-0.17,1.07,0.2,3.08v2.72l0.22,1.55-0.29,1.16,0.34,1.07,0.08,0.78-0.68,1.75L555,252.84l-0.37,1.07-0.25,2.65,0.12,1.34-0.19,1.85L554,260.83l-0.66.82-0.19.63,0.41,1v1.89L554,266.7v3.5l-0.46,2-0.9,2.46-0.07,2.72-0.2,1.19,0,1.43-0.6,1.36,0,1.21-0.09,1.31-1,1.94L550.43,288l-0.93,3.79,0.29,1-0.34,1.94-0.75,1.12,0.36,0.94v1.09l-1.85,3.93-0.12,1.82v1.67l-0.31,1.55-1,4.32-1.19,1.7L544,315.69l-0.83,1.6L543,318.91l0.07,2.45-0.77,2.94-0.75,2.16-1.11.82-0.78,2.62-0.14,1.5-0.63,1.27v0.73l0.22,0.29,1.43,1,2.28,0.61,3.23,1.1,3.31,1.5,2.41,1.46,2.33,1,1.48,0.92,1.12,0.81,2,1.38,2.82,1,1.68,1.21,1.12,0.34,1.28,0.63,1,0.88,2.26,2.55,2,1.84,2.6,1.72,1.82,1.07,0.92,1,2,1.36,1.14,1.75,1.17,0.76,0.82,1.1,1.11,0.83,1,1.34,1,0.46,0.9,0.56,0.8,1.12,0.68,0.78,1.67,0.73,3.74,4,2.43,2.4,0.78,0.66,1.38,1,0.78,1.15,0.88,0.54,2.35,2.48,3.57,5.1,1.09,0.87,0.92,1.48,3,3.76,1,1.92,0.82,0.63,0.66,1.28,1,0.92,2.7,4.06,0.46,1.45,1.85,2.5,1.22,1.17,1,1.87,1,2.41,1.83,3,0.82,1.12,2.21,4.06,0.53,1.85,0.43,1,1.41,1,0.87,2,1.65,2.7,0.93,2,0.43,1,1.24,2.62,1.58,3.25,0.41,2,1.09,2.77,2,4.27,0.08,1.5,0.75,2.63,0.51,1,1.17,1.22,0.2,1,0.66,1.73,0.3,1.46,0.27,1,0.87,2.53-0.07,1.67,0.32,1.07-0.17,1.5,0.39,1,1.23,1.67,0.19,1.27,0.86,2.48,0.27,2.16,0.8,1.12,0.54,6.68-0.21,1.17v1l0.78,0.59,0.26,0.73-0.09,1.73,0.33,1,0,1.09,0.14,1.58,0.59,1.33-0.08.8,0.12,1.77L649.45,492l0.25,2.45-0.34,1.31,0.39,2.35-0.22,2.19,0.24,2-0.37,1.51,0.56,2.64v1.67l0.37,1.9-0.46,2.84-0.58,2.31,0.12,2.24-0.34,1-0.39,3.5,0.12,1.19,0.12,1.26-0.7,1.7,0.2,1.6-0.15.71-0.2,2.23-0.72,2.65-0.51,1.9-0.19,2.23-0.42,1,0.12,1.29,0.07,1.58-1,2-1,1.87-0.19,1.26-0.48,2V550l0.22,0.55,0.71,0.25,6.19-.24,1.55,0.37h1.19l4.15,0.17,3.79,1,2.11,0.3,5.51,0.11,2.19,0.71,5.22,0.09,2.5,0.88,1.68,0.24,1.58,0.34,1.29,0.63,2.26,0.63,1.87,1,1.36,0.55,2.19,1.19,1.8,0.61,1.48,0.44,2.09,0.32,4.42,2.33,2.6,0.76,1.7,1.21,2.4,1,1.53,0.87,1.7,0.24,2.91,1.92,4.3,3.38,1.6,1.33,0.39,1,0.76,1.16,1.39,1,1,1,1.23,0.7,1.6,1.77,1,1.36,1.77,1.14,1,0.32,2.41-.5,2.79-1,2.12-.78,1-.49,0.75-1.17,1.21-.24,2.5-.88,1.77-.63,1.26-.17,3.55-.31,2.91-.49,3.54,0.29,2.31,0.58,2.92,0.46,1.6,0.82,2.65,0.71,2,0.88,2.37,1.48,3.74,1.58,1.92,1.44,2,1.82,0.85,1.09,1.71,1.65,1.33,2.07,2.4,1.92,1.07,1.34,1.38,3.45,1.58,2.75,0.37,1.55,0.82,3,0.39,2,0.27,1.67,0.6,3.25,0.61,2.28,0.1,2.06,0.22,1.15v1.31l0.07,2.15,0.26,1.68-0.11,2.38-0.15,2.16,0.12,2.67-0.2,2.12L790.4,633l-0.24,1.82-0.54,2.36-0.71,4.11-0.46,1-0.09,3.62-0.3,1.14-1.29,2.07-0.58,2.31-1.07,2.31L784,655.49l-1.92,3.38L780.44,662l-1.19,1.7-2.09,3.69-1.16.76-2.4,2-0.85,1.55-0.9,1-1.48.94-2.17.7-1.58,1.32-1.65.77H763.7l-1.09.17-1.17,1.24L758.23,679l-1.89,1-3.4.94-2.79.09-1.53.41-4.35.82-2.94-.2-0.64.29-0.55.92-2,3.79-2.5,2.82-0.94,2.43-0.87,1.06-1.94,1-0.8.63-1,1.83-1.48,1.4-0.94,1-0.25,1,1.21,1.65,1,1.85,0.32,1.6,0.48,1,1.24,1.18,1,3.36,1.33,2,0.38,1.09,0.59,1.82,0.19,1.38,0.32,0.66,1,0.44,0.44,0.53v1.27l0.27,0.55,0.27,0.7-0.32,1.6,0.2,0.75,0.93,3.43,0.9,1,0.55,1.89-0.15,1.33-0.22,1.9,0.41,1.06,0.26,1.17,0.34,1.12,0.3,2.58-0.15,2.67,0.2,3.89-0.38,2.43,0.1,1.85,0.07,1.51-0.61,1.8-0.36,2.53-0.85,1.56,0.14,1.52-0.63,2.17L737.7,764l-0.7,1.24-0.7.73-0.66.8-0.14,2.74-0.88,2-1.53,1.84-0.3,1.14-0.68,1.72-1.51,2.36L729.18,780l-0.68,1.28v0.85l0.75,1.68,1.68,2.17v1.16l0.37,1,1.16,1.24,0.15,0.81,0.24,0.75,1.33,0.58,0.36,0.61,0.1,2,0.8,1.14,0.09,1.85-0.41,1-0.19.66,0.27,0.68,0.32,2.11,0.2,2.11-0.72,4-1.19,3.16-1.75,4.5-1,1.38-2.45,2.85-0.7,1.23-2.36,2.46-0.87,1.07-1.44,1-1.34.58-1.06.89-3.36,1.92-1,1.38-1.78,3L713,835.25l-0.6,1.8-1.78,2.56-1.15.77-1.21,1.19L706.7,844l-0.94,1-0.88,1.53-1.88,2.4-3.06,3.21-0.66,1.75-4.89,3.77-4.88,3.78-1.65.78-1.79.14-1.58.34-2,1.85-1.62.78-2.38.21-4.25,1-4.33,1-2-.22-1.68.24-2.7.07-1.18.22-3.55.22-1.89-.48-1.67.07-1.16-.32-3-.8-3.54-.34-0.68-.27-0.56-.88-1.09-.85-1.36-.56-2.45-.12-1-.43-1-1.36-1.62-.8-0.83-1.09-2.21-1.15-2.18-2.18-2.09-1.75-1.49-1.39L627,853l-1.07.8-1.78.61-1,1.43-1.77.65-2.89,1.44-1.31.12-0.73.26-0.92,1-1,.41-3.43,1.39-1.19.73-0.88.55-2.74,1.12-1.63.31-1.11.82-4.68,2.07-2.61.3-1.29-.08-0.69.15-0.83,1.12-2.09.78-1.29.17-2.45.41-1,.41-0.61.83-0.28,1.2,0.32,0.66,1.22,0.7,1.58,1.31,1.41,1.48,0.68,1.26v1.16l0.56,1.31,0.78,0.66,1,1.39L594,885l0.2,1.26,0.36,1.09,1.32,1.56,0.87,1.53,0.56,2.33L596.78,894l0.07,3.45,0.44,1,0.46,1.48,0.51,0.44,0.41,1.07-0.1.77-0.93,1-0.24,1.23,0.19,1.29,0.09,1.17-0.48,1.48-0.25,1.7-0.6,2.75-1,1.45-0.75,1.67v1.63l-0.25.68-2,2.85-1.09,2.28-1.07.85-0.58.87-1.12.82-1.21,1.19-0.85,1.09-1.7,1.19-1.16,1.26-1,.88-2.36,1-0.92,1L577,934.7l-2.28.15-0.61.34-1.7.69-1.87,1h-0.73l-1.14.2-4,.3-1.11-.15-1.83-.1-1.16-.33h-0.68l-0.93.53-4.47.84-0.77-.19-2.14-.27h-4.67l-1.72.1-2-.42h-0.77l-2.94.46h-1.23l-2.74,0-1.19.22-2.58.15-0.85-.53-1.14-.34-1.26.19-3.4.46-2.23-.14-1.17.29L520,938l-1.19-.27-2.82-.56-2,.39-1.82.1-1.92-.51-2.67-.24-1.26,0-2.19-.12-1.67-.24-1.15.15-0.71-.07-1.17-.75-2.4-.51-2-.93-2.94-.1-1.38-.56-1-1.36-1-.48-1.09-.22-1.9-.12-1.38.53-1.09.84-3.06.8-2,2.36-0.8.61h-1.9l-0.8.17-0.46.51-0.8.63-1.21.25-2.81.24-2.26.63-1.73.68-1.33.14-2.35-.39-2.58.76h-4l-2,.27-1.67-.29-4,.14-1.56.36h-1.21m13.58-14,1.26-.2,1.67,0.09,2.67-.24,2.21-.68,1-.46L470,925l2.18-1.21,1-.46,1.67-2.19,0.56-.88,0.39-2.5,0.75-2.62,0.31-1.58-0.25-1.15,0.41-2.43v-1.19l0.82-2.06,0.51-5.42,0.15-1.19L478.19,898,478,897l0.37-3-0.48-2.43-0.17-2.23,0.07-2,0.25-1.21-0.19-1.29-0.51-.94-0.25-1.67-0.54-.43-3-.51-1.6.32-2.21-.17-3.14.14-2.21.2-3-.25-2.23.66-3.74-.43-3.08-.19-1.09-.19-1.19-.09-1.44-.48-1.46.46-1.24-.19-0.7-.25-1.9.44-1.82-.12-1.31-.61h-1.33l-1.65.32h-2.77l-1.89-.53-0.92-.54h-1.26l-1.55.41-1.33-.09-2-.29-1.9.31-1.11-.14H421.1l-2.52-.85-1.19.07-1.19.09-1.72-.24-3.21-.17L410,879l-1.15-.31-1.84-.1-2.84-1-0.56-.43h-0.76l-1.07.39-4.73-.24-1.22.25-1.24-.19-1.22-.7-3.13-.24-0.75.22-1.56.87-1.58.82-2.33,2.5L380.85,883,379,886l-1,2.38-0.92,1-0.49.46L375.47,893,375,895.4l-0.49,4.35,0.2,1.26,0.58,1.29-0.41,1-0.56,1.36,0.07,1.63,0.71,1.7,0.15,1.29,1,1.87,0.49,1.45,0.37,1.53,0.77,1.17L379,917l0.54,0.93,1.77,1.1,1.39,1.5,1.09,0.37,3.32,1,3,1.77,2.23,0.11h3.94l2,0.14,1,0.26H400l1.39,0.56,7,0.59,1.22,0,1,0.32,1-.32,3.59,0.44,1.29,0,1.55,0.39,1.56,0.27,2-.15,4.73-.07,1.63,0.29,2.06-.36,1.33-.15,0.73,0.25L433,927l1,0.44,2.94-.19,2.5,0.12,1.22-.15,1.75,0.55,2-.39,2.67,0.15H451l1.45-.44,1.9,0.51,0.71,0.27,0.82-.11,1.39-.56,1.17-.25m92.29-2.16,0.58-.32,1.53,0.19,2.09,0.32,2.5-.22,1.51,0.29,3.35-.84,1.58,0.21,1.46-.31h1.23l4.4-.9,2.45-.94,1.22-.7,0.87-.58,1.31-.61,2-2.35,0.63-.82,0.75-.69,1.24-1.65,0.87-2,1.17-1.72,0.38-1.56v-1.38l0.68-1.26,0.63-.82,0.07-2.65-0.31-1.62v-2.6l0.39-2-0.22-.77-0.49-1L584.15,894v-1.14l-2.06-3.72-0.51-1.9L581.41,886l-0.53-.42-1.39-1-1.29-2.09-2.11-1.75-1.38-1-1.83-2-1.7-.71-0.87-.58-3.8-1-1.74-1.14-1.22-.24-1.77.15-1.14.27-1.72-.07-2.21,1.19h-2.5l-5.37.9-2.09.32-4.44.39-2.26.63-2.94-.36L535.6,877l-1.26.2-1,.43-1.53.41-1.83.22-1.7-.09-1.8.61-2.31.1-1.21.2-3-.2h-4.37l-1.28-.07-4.38.92-3.79.22-2.17.24-1.58.36-2.62,0-3.23-.44-1.43.51-1.55-.24-0.7.24-0.2.27v2l-0.42,2.94-0.46,1.5,0.22,3.89-0.85,4.43,0.42,3.33-0.46,2.46,0.19,3.13,0.12,1.73,1,2.91-0.12.73-0.65.84-0.48,1.48v0.8l1.29,2.58,0.49,1.87v0.75l0.37,0.56,2.4,1.94,1.55,1.34,1.87,1,1.29,0.17,1.28-.15,3.37,0.94,3.5,0.27,1.8-.1,3.5,0.25,1.29-.07,3-.1,1.31-.07L521.3,925l2.16,0.19,4.08,0.14,1.76-.14,2.65,0.15,2.12-.09,1.16,0.2,1.71,0,1.78,0,3.42-.46,2.26-.15,0.78,0.19,1.26,0.66,1.62,0.22,1.26-.63,1.33-.46M481.88,868.6l3.59-.76,1.7,0.1,1.17,0.07,1.15,0.32,1.29-.14,2.38-.51,2.21-.22,2.28-.08h1.09l1-.39,4.42,0.25,4.13-.1,4.63-.67,1.14-.32,1.9,0.17,2.7,0.1,1.16-.27,1.48,0.34,2.26-.48,1-.43h2.57l4.74-.56,2.52-.25L536,865l2.23,0.1,0.75,0.17,1.91-.42,1.67-.27,3.74-.59,3.08-.77,1.29-.14,1.62,0.32,1.6-.31h2.58l2.9-.48,2.26-.61,2.21-.19H565l1.07-.3h1.17l4-1.26,1.79-.63,3.46-.87,1.53,0.27,5-1.27,3.4-.94,1.44-.48,2.89-.46,1-.09,7.34-2.81,1-.29,0.7,0,3.09-1.73,1.28-.64,4.08-1.7,1-.44,1.12-.79,1.91-1,2.77-1.58,2.34-2.48,1.46-.94L621,841l0.19-.73-1.6-6.66-0.42-.53L619,833l-0.51.46-1.29,2.09-1.87,1.52-0.84,1.09-0.51.92-4.23,2.53-6,3.67-9.33,4.18-0.71.72-2.24.17-1.49.42-1.55-.25-4.9.41-3.2-.14-1.77.14-4.91-.58-1.21-.24-1.72.14-2.84-.54L566,849.2l-1.62.29-0.78-.17-1.43-1-1.87-.54-0.92-.51-3-.44-1.39-1-0.85-.59-1.58-.34-0.87-.58-1-.94-2.84-1.5-2.16-.24-1.19-.75L543.15,839l-0.56-1.36-0.83-.61-0.88-.55L539.46,835l-0.64-1.29-0.94-1-0.66-1.26-1.36-1.53-2.46-4.27L532.67,823l-1-3.38-1.22-3.13-0.32-2v-1.17L529,807.75l0.14-2.69-0.29-1.65,0.63-4.16L529,795.39l0.39-2.9,0.17-2,0.39-4,0.68-3.18,0-1.87,0.85-3.5,0.7-2.65,0.46-1V773.4l-0.32-.68-1.16-.75-2.16-.73-2-1.83-1.36-1.53-2.53-1.33-1.39-1.49-0.51-1.41-2-1.83-1.62-3.69L517,756.77l-1.31-2.06-0.53-1.87L514,750.26l-0.19-2.35-0.26-3-0.12-1.18,0.34-5.49-0.12-1,2.75-6.41,1.75-3.06,1.7-3.13,2.07-2.76,2.16-2.65,0.69-.75,0.87-.58,0.51-1.43,2-1.85,1.24-.68,1.75-2.11,1-1,2.58-1.77,2.41-1.43,2.38-2L544,702.9l6.68-3.43,2-1.36L555,697l4.74-2.48,3.23-1.12,5-2.26,2.19-1.19,1.53-.86,1.45-1,2.9-1,2.35-.53,0.54-.46,0.09-.63-1.11-2.31-2-2.81-1.6-3.23L573.73,676l-2.16-3.64-1.65-4.61-1.78-5.93-0.87-3.45L566,655.73l-0.27-1.67-0.25-1.65-0.49-1-1.19-.74-3.19-.6-0.54.31-0.59.37-0.87.09-0.56.42-0.76.7-0.8.12L555.2,652l-1.6.82-1.1.82-2.31,1-2,.46-0.78.66-1,1-1.12.32-2.84.53-2.91,1.43-1.31.63-2,.94-2.58.78-1.63.31-2.29,1.56-2.35.51h-1.19l-2.17.73-5.36,1.39-2.14.19-1.43.15-1-.5-0.59.14-1,.53-3.24,1.09-1.89.51-1.43.51-1.72.14h-0.75l-0.59.27-1.43-.32-1.61.21-1.5.48h-2.62l-4.54,1.24-3.6.26-1.19.24-2.07-.32-2.58.36-1.44.24-2.58.2-1.36.07-1.07.38-4.88-.22h-2.75l-1.45.3-3.43.14-1.11.22h-1.21l-1.56.41-2.94-.1-1.87-.22-1.38.54h-1.85l-2.31-.56-1.19-.27-1.53.41-3.94.89-3.33-.1-1.6.27h-2.77L432,673l-1.07-.41h-1.24l-1.19.15-1.65-.27-3.4-.14-0.78-.17-2.62.15-1.65-.24-1.36-.58-2.26-.12-2.31-.38-1.12.1-1.73-.68-1.22-.17-1.73.09L404,669.19l-4.13-.19h-1.19l-1.73-.66-2.28-.61-1.55-.39-5-.82-2.29-.51-1.5-.17-1.94-.48-2.41-.5-1.55-.85-3.91-1.38-3.45-1.37-2.21-.2-2.72-.65-1-.5-2-.46-0.94-.53-0.8-1.12-1.55-.37-0.88-.56-1.63-.29-1.58-.84-5.08-1.67-1.14-.31-1.34-1.07-1-.43-1-1.36-2.2-1.1h-0.71l-1.09.3-0.63-.32-0.53-.44-1.68-.24L336,646.79l-0.9-.54-1.46-1-1-.94-1.7-1.17-2.35-1.51-1.07-.37L326.36,640l-0.94-1.46-4-2.19H320l-2.38,1-0.7.73-0.73.72-1.36.59-1.77.14L310,641.31l-2.4,1.46L304.08,645l-2.31,1.56-1.46.46-1.9,1-2.14,1.7-0.78.68-1.14.3-0.44.53-0.42,1-1,.48-1.48-.2-1.73.7-1.21,1.19-2,.93-1.36,1-2.36,1.51-3.28,2.48-0.77.7-1.46.46-2.19,1.67-1.17.75-0.92.53-2.8,2.5-1.73.36-2.31,2-1.48.44-1.8,2.06-2.16.73-3,2.28-1.55,1.36-1.89,1.46-1.05.39-1.36,1-0.75.69-0.65.82-1.07.83-0.41,1.06-0.07,1.37-0.87,1.07-0.32,1.56,0.12,2.4,0.85,2,0.12,1.53,0.17,1.41,0.85,1.58,0.92,3.42,1.67,1.71,1.24,0.68,0.66,1.26v2.07l0.59,1.82,0.73,0.73,0.78,2.11,1.48,1.89,0.61,0.83,1.24,0.7,0.29,1.63,0.85,1.07,2.62,2.23,0.63,0.29,0.51-.25,1.31-2.55,1.87-3.43,3.2-1.16,1-1,0.7-.15,2.48,0.88,1.75,1.14,1.7,0.72,0.44,0.53-0.32,3.2-0.14,2.11L278,719.11l-0.22,1.22-0.85,2.51-0.2,1.23,0.12,1.73-0.44,2.45-0.48,1.44-0.49,2.42-0.12,1.82-0.32,1-0.24,1.43-0.58,2.31L274,741.76l-0.15,1.72L273,745.1l-0.56,1.75,0.37,1-0.39,3.4-0.49,2.38-0.76,1.67v2.64l-0.29,1.61-0.19,1.28-0.34,1.61v1.21l0.14,1.12-0.39,1.55-0.1,1.82-0.76,2v1.67l-0.94,2-0.09,1.26,0.17,2.52-0.68,3.16L267.47,782l-0.27,1.17-0.44,3.57L266.15,789l-0.73,1.68-0.17,2.38L265,794.23l0.2,1.12-0.32,3-0.78,2.94,0.63,2.65,0.44,1.48,0.53,0.92,0.25,1.21,0.39,1.07,0.22,1.68,0.75,1.19,1.94,1.43,0.88,1.53,1.92,2.41,1,1.94,3.08,2.23,3.35,1.94,0.94,1,0.68,1.24,2.74,2.09,3,2.33,2.31,1.53,1.72,1.21L293,834l1.17,1.24,1.24,0.68,1.89,0.53,1.6,0.82,1.41,0.51,2.46,1.39,2.91,1.92,2.63,1.21,2.33,0.56,3.91,1.87,1.94,1.46,0.48,0.39,1.58-.22,4.78,1.48,3.3,1.53,1.8,0.61,1.16,0.29,1.61,0.8,2.79,1.07,2,0.42,4,0.8L342,853.7l1.92,1,0.93,0.51,1.79,0.63,2.06,0.84,3,0.07,2.46,0.1,2.28,0.61,1.33,0.61,1.07,0.37,1,0.41,2.09,0.31,2.45,0.44,4.64,0.66,2.82,0.55,1.63,0.31,1.39,0.44,2.57-.22,3,0.82,1.19,0.27h1.9l1.63,0.31,4.28,0.51,1.16,0.29,1.21-.07,4.38,0.78,2.6-.25,1.92,0.42,0.68-.2,0.2-.61,0.15-.58,1,0.19,0.49,0.48,0.42,0.55,2,0.43,2.62,0.29,2.65,0.7,2,0.42,2.19-.12,2.91,0.46,1.12,0.34,2.63,0.09,2.16-.22,1.82,0.59,3.6-.29,4.61,0.11,2.19,0.2L439,867.4l1.11,0.83,1.68,0.24,2.24-.2,0.8-.11,2,0.41,3.08-.12,3,0.27,1.45-.45,1.19,0.29,1.07,0.36,1.84-.08,2.09-.31,1.9,0.12h2.62l2.33-.56,1.61-.31,1.22-.19,1.31,0.13h1.16l0.8,0.19,1.58-.32,2.16,0.73,1.29,0.61,3.42-.43M660,858l2.41,0.35,2.89-.49,1.94-.48,2.14-.25,4.45-.87,1.89-1,2.12-.31,1.62-.3,1.72-.68,4.16-2.58,1.45-1,3.84-2.9,2.11-2.23,1.09-.85L695,843.2l1.39-2.46,1.22-1.17,1.12-1.77,1.7-2.65,1-1.36,2.38-3.39,2.43-4.81,1-1.85,0.54-1.39,1.16-2.21,1.53-4.25,0.59-1.82,0.46-1.46,1.16-2.23,0.78-5v-1.16L713.36,802l0.17-3.13L713,795l-0.37-1.58-0.19-2.36-1-2.85-0.76-2.62-0.94-1-1.29-2.07-2.5-2.8-1.41-2-1-1-1.28-.64-6.19-3.45-1.92-.48-3.3-1-4-.83-3.48-.19-1.11.36-1.31.15-5.42-.93-1.73.66-2.07.34-2.57.82-1.39,1-1.7,1.19-2.41.48-0.82.63-1.53.87-2.5,2.35-1.49.9-2.36,1.5-2.14.75-2,1.85-1,.47-1,.5L648,785.48l-2.33,2.5-2.45,3.35-1.51,1.83-1.39,2.94L639,798.6l-1,2.4-1.21,2.16-0.42,1-1.16,4.16-1.62,2.7-1.14,3.2L632,817.11l-1.51,3.76-0.43,3,0.87,5.32-0.32,2.45-0.15,1.1,0.51,1.43,0.88,3.94,1.28,2.57,1.17,3.16,1.38,2,1.72,1.65,1.89,1.48,0.61,0.83,0.66,1.28,3,1.78,2.92,0.92,2.18,1.19,1.22,0.24,1.39,0.53L652.9,856l2.46,0.92,2.06,0.35L660,858m-71.79-17,1.75,0.17,3.08-.78,3.49-.85,4.47-1.78,4.13-3.11,2.45-2.36,1.34-1.07,1.63-2.23,1.73-3.1,1.43-2.41,0.54-.9L615,819l0.37-3,0.83-3,0.71-1.72,0.27-2.51-0.43-2.43,0.19-2.22-0.17-2.19-0.09-5-0.49-3.79,0.24-2.53L616.19,789l-0.44-3.89-0.43-1.89-0.08-1.12-0.41-2.5-1.29-3-0.75-1.65L612,772.78l-1-2.89-0.51-1.9-1-1.39-1.38-1-0.59-.85-1-2.33-1.77-3.52-1-1-1-1-1.8-2.53L599.5,753l-1.24-.7-1.76-1.12-1.38-1-0.65-.78-0.76-.2-1.22-.24-2.63-1.21-1.6-.34h-1.62l-3.84-.49-3.67-.12-2.91.44-1.85.09-3.86,1-1.68.73-2.11.32-1.34,1.53-0.71.72-2.09.8-1.32,1.1-1.07.27-1.11.1-1.14.82-1.26,1.14L556,757l-0.87,1.07-2.79,2-0.85.59-1.34,2.06-0.55,2.33-1.7,2.63-1.11,1.78-1.37,1-0.75.7-0.36,1.09-0.19,2.21-0.71,1.22-1,1-0.24.71-0.37,2.52-0.46,2.92-0.61,2.28-0.42,2-0.87,1.53L539,791l0.63,2.28-0.1,2.68v1.24l-0.1,2.33,0.31,1.61-0.55,2.33-0.55,1.41,0.19,2.16,1,2.81,1.11,5.64,1.22,3.11,0.26,2.16,1.28,3.06,2.12,3.2,2.89,2.87,4.64,3.57,4.11,2.12L560,837l1.5,0.9,3.48,1.33,1.94,0.49,2.26,0.61,2.53,0.34,3.64,0.24,2.85,0.5,2.57-.15,1.67,0.24,2.72-.07,3.11-.44m135-33L723,810.63l0.17,0.2,0.48-.29,2.64-4.64,0.37-1.55-0.24-5L725,796l-0.46-.44-0.17.12-0.07.36,0.15,1.34,0,3.48-0.44,2v3.5L723.23,808m-96-15,0.19,2.3,0.2,0.19h0.24l0.48-.51,3.47-4.74,0.8-1.12,3.45-4.74,3-2.82,2-1.85,1.87-2.48,0.36-1-0.8-2.56-1.07-4.22-1.09-2.77-0.44-2.94-0.39-3.62-0.24-1.68-0.56-.89-1-2.43,0.12-.8v-2.67l-0.75-2.16-0.63-.81-0.55-.92-0.08-.76,0.37-1.06-0.3-2-0.12-1.8L635,739.45,634.13,736l-0.56-1.39-0.59-.34-2-.35-3.77.46-3.06,1.78-1.77.15-2,.87-1.75,1.61-1.61.82-1.65,1.23-1.22.71-1.63,1.26L611.7,744l-1.43,1.94-1.65.8-0.12.32,0.19,0.73,1.72,2.16L611,751.3l2.12,2.7,2.11,2.72,1,2.29,0.53,1.9,1,1.43,0.92,2.46,1.82,2.52,0.9,1.49,1.53,4.74,0.7,1.23,1.29,2.09,0.7,1.7,1.16,5.11-0.14,1.72,0.53,2.87L627,789.75l0.37,2-0.1,1.19M251.9,776.47l2.46,0.46,0.75-.22,0.32-.64V774.2l0.88-3,0.61-.77-0.2-1,0.36-2.55,0.42-2-0.1-2.16,0.66-1.28,0.56-1.84,0.41-2.48-0.17-1.46,0.58-1.36,0.07-1.07,0.48-1.44,0.59-5.18,0.27-1.18,0.29-1.65-0.2-3.47L259.86,739l-0.46-1-0.92-1L258,735.51l-2-2.36-0.71-1.23-1-1-0.9-2-1-1L251,725.69l-1-1.92-0.87-2.51L248,720l-1.09-2.28-1-.9-0.71-1.23-1.38-1.51-0.58-1.34-0.76-.68-0.65-1.21,0.19-1.07-0.12-1.33-0.37-.59-0.66-.31-1.21-.12-0.24.2-0.14,1-2.16,2.19-1.63.76-0.29.68-0.61,1.31-1,.92-0.82,1.6-0.71.71-1.17.27-0.76.68-1.48,2.87L227.53,722,227,723.36l-1.19,1.7-1.17,1.7-0.41,2-0.56.87L223,731.94l0.12,2.69L222.55,736l-0.31,1.14,0.32,1.1,0.42,2.4-0.46,1-0.43,1v0.83l0.49,1,0.17,1.9,0.29,2.12,0.7,1.24,0.25,1.67,0.65,2.24,0.85,1.07,0.46,1.48,2,2.8,0.63,1.28,1.46,3.36,1.48,1.9,1.19,0.26,1.39,0.54,2.29,2,0.49,0.93,1,1.43,2.21,1.62,2.12,0.78,1.43,1,4.59,1.67,2.48,0.41,1.1,0.34m462.81-2.36,1.23,1.21,0.61,0.25,0.61-.29,3.21-3.06L722.8,769l2.07-3.71,1.07-2.29,1.43-2.45,0.78-2.09,1-4.32,0.54-3.31-0.19-2.94,0.15-3.69-0.49-4.32L729.09,738l-0.36-2-0.41-3-0.22-2.19L726.26,724l-1.38-3.89L723.66,717,722,713.8l-1.15-2.69L720,710l-1.31-1.6-0.63-.2-0.72.2-0.92.56-2.21,2.11-1.29.64-3.5,2.28-1.46.46-2.31,1-3.33,1-1.78,1.1-3.67,1.65-1.11.14-1.21.1L692,720.88l-2.09,1.29-1.29.65-4.08.75L683,723.5H680.8l-1,.48-1,.19-1,.35-3.09.75-1.84.12-2.8.24-1.67-.14-3.15-.12-2.67-.19-1.24.22-2.24.15-1.89.54L656,726l-1.22-.09-1.22.72-1.33.61-3.77.56-2.16.73-1.29.63-0.29.71,0.12,0.85,0.55,0.44,0.32,0.63-0.15,1.94,0.17,1.73,0.87,2-0.14,1,0.77,4,0.93,0.93,0.12,2,0.27,1.65,0.53,3.33,0.2,1.71,0.51,1.45v2.09l0.63,0.82,0.29,2.14,0.5,1.9,0.15,1.77,0.51,2.38,0.14,2.26,0.75,1.68,0.58,0.39,0.76-.1,1.36-1L659.9,766l3.88-1.43,2.67-1.65,2.19-.71,2.63-.27,2.4-.48,5.17-.61,4-.34,2.53-.37,1.12,0.08H688l2.33,0.58,3.26,0.6,4.4,1.39,1.65,0.73,4.55,2.19L707,767.4l3.21,1.6,1.51,1.39,3,3.72M535.2,761.55l1,0.63,1,0.43,0.68-.24,1-1.41,0.75-1.19,0.75-1.19,0.24-2.17,0.55-.89,2.11-1.75,4.56-4.61,4.25-3,3.06-1.77,0.73-.7,3.67-2.12,3.06-1.75,0.37-.59,0.9-3.91,1.73-4.54,0.12-1.48,0.36-1.58,0.75-1.17,1.14-2.72,0.68-2.69,1.38-3.45,2-4.23,2.33-4.4,1.58-3.74,0.22-2.65-0.27-.61-0.68-.29-1.5.37-2.3.59-3.3,1-2.07.34-1.1.34-0.92,1-2.5,1.82-6,2.21-2.65,1.21-0.78,1.14-1.7.71-1.26,1.16-2.29,1.07-1.07.85-1.29,2.09-1,1-2,.93-1.16.27-1.1.34-1.83,1.55-0.61,1.32-0.58.37-2.45.92-0.76.7-0.9,1L530.61,728l-0.25,1.19-0.85,1.53-0.37.61-1.12.32-0.46.51v1.58l-0.26,1.19-0.9,1-1,1.46,0.17,1v0.87l-1.19,3.18-0.12,2.12,0.76,2.09,0.1,1.34,0.24,1.68,1.07,2.29,1,1.9,1.58,1.79,0.94,1.48,1.16,1.24,0.94,1.48,1.43,0.51,1.72,1.17m64.09-23,2.36-.55,0.27-.22,0.56-1.34,2.51-2.31,2-1.39,0.71-.73,0.6-.38,0.56-.88,1.29-.63,1.23-.22,1.92-1,2.23-1.14,1.07-.87,2.94-.9,3-.82,0.87-1.07,2.11-.78,2.21,0.14,2.43-.47,1.87,0,1-.49,0.2-.22V722l-0.82-.61-4.35-1.43-2.92-1.39-1.71-.22-1.39-.55-0.94-.51-1.61-.3-3.15-1.67-1.21-.73-1.31-.49-1-.27L611,712.7l-1.09-.85-2.36-1-1.41-1.5-3-1.31-3.06-2.72-0.94-1-1.68-1.21-1.21-1.19-1.87-1-1.75-1.14-1-.39-0.59.31-0.59,1.82-1.68,1.72L588,704.37l-1.1,2.26-1.34,2-0.53.9-0.41,1.55-0.36,1.07L584.17,714l-1.24,2.14-1,2.36-1.07,1.34-0.59,1.82-0.17,1.75-0.68,1.73-1.42,2-2,3.31-0.27,1.19-0.24,2.16-1,2.38v0.39l0.19,0.29,0.75,0.24,2.16,0.09,3.94-.43,3.59,0.29,1.72,0.21,1.78,0.15,3.89,1.39,2.74,1.12,2.06,0.87L598,740.9l0.54-.39,0.73-2m69.21-22.18,5.1-.37,3.13-.71,1.56-.37,1.52-.39,4.81-1,1.67-.75,1.77-.63,3.33-.53,4.56-1.22,3.33-1.5,7.55-4,1.46-.94,1.68-1.68,3.2-2.12,4.09-3.6,1.24-1.17L720,694l4.66-4,2-2.31,2.81-3.94,1.43-1.94,1.32-2.06,0.78-2.11,2-3.79,2-5.69,0.76-2.14,1-3.35,1-2.38,0.68-2.69,0.29-2.14,0.53-2.82,0.19-1.77,0.09-1.22-0.22-1.17-0.07-1.6-0.14-1.78,0.27-1.57-0.12-1.34,0.11-1.68-0.11-3.16,0.17-2.14L741.38,633l-0.25-2.15,0.14-2.21L740.18,623l-0.77-3.07-0.44-2-1-3.31L737.63,613l-2-4.72L733.5,605l-1.21-2.18-1.58-2.26-2.55-3.72-1.67-2.19-2.24-2.09-1.63-2.23-1.87-2-2.38-2-1.15-1.26-2.38-2-1.38-1.51-2.51-1.8-0.73-.71-1.58-.83-3.16-2.14-4.86-2.86-1.55-.37-2.57-.34-1.28-.65-1-.9-0.66-1.26-2.45-.94-3-.87-1.11-.34-1.83-.09-2.75-1.09-1.89-.55-5.91-2.26-2.06-.36-2.7.12-1.12-.3-2.21-1-1.39-.53h-1.38l-2.43.48-1.19-.27-1.62-.8-3.43-.54h-2.72l-3.11.27-1.65.07-1.46-.48-1-.49-1.22.07-3.71,1.1-1.65,0-2.19.73-1.78.14-3.59.75-2.29,1.09-5.42,1.32-3.3,1-2,.44-1.77,1.12-1.23,1-1.75.66-1.72,1.17-7.68,3.89-3.16,2.6-1.12,1.29-1.68,1.21-1,1-1.12.82L594.3,583l-2,1.33-1.41,2-0.8,1.12-1.84,1-1.44,1.44-1.12,1.77-1.28,1.14-0.85,2-2.21,2.6-2.07,3.7-0.84,2.55L578,606.28,577.64,608l-0.75,1.67-0.34,1.58-0.88,1.53-0.48,3.37-0.32,3.55-0.29,2.62,0.12,2.17-0.37,1.94,0.07,2.26-0.8,2.58-0.44,1,0.17,1.26,0.13,0.78-0.3,1.63,0.07,1.67v2.28l0.22,2.17L574,644l-0.22,2.16-0.17,1.65,1.27,3.49,0.65,1.77,1.22,2.63,0.51,0.94,0.82,3.49v1.65l0.53,2.38,2.17,5.52,1,1.85,2.6,4.63,1.78,3,2.3,2.53,1.19,1.21,1.49,2.36,1.46,1.43,1.57,1.8,4,2.74,2.19,2.12,4.23,3,1.58,1.29,3.37,1.94,1.24,0.7,2.42,1.43,1.72,1.19,3,1.82,0.83,0.63,6.87,3.23,2.76,1.11,1.85,0.56,1.31,0.61,4.86,0.93,4.57,2.18,3.21,0.64,3.07,0.17,2.5,0.36,1.83,0.54,5,0.2,4,0.34,3.06,0.32h2.09l1.77-.17h1.07m-25.46-26,1.94,0.32,2.68-.13,3.89-.94,1.29-.65,0.58-.83,1.92-2,1-1.36,0.44-2L657,680l-0.43-1-0.66-1.73-1.67-2.19-1.34-1-1.46-1.43-4-1.82-2-.37-1.78.08-2.19-.12-1,.39-1.85,1.06-1.87,1.49-1.48,1.89-0.58,1.84-0.25,2.67,0.34,1.58L635,683.4l1,1.87,2.31,2.5,2.62,1.71,2.09,0.8M751.47,670.1l1.45-.15,3.5-1.31,4.79-2.92,1.9-1.46,2.33-2,1.21-.73,2.53-2.28,2.29-3,1.31-1.57,1.94-2.89,1.48-2.87,0.43-1,1.09-3.26,1.46-3.84,0.68-3.63,0.78-4,0.34-1.6,0.17-3.11,0.1-4.52-0.09-2.12,0.12-1.78-0.49-4.32-0.46-2.45L780.17,611l-0.7-1.24-1.07-2.3L777.5,605l-1.73-3.57-1.34-2.52-0.42-1-2.45-2.36-2.94-2.38-3.89-2.84-2-1.37-1.51-.88-3-.84L754,586.6l-3.18-.07-1.84-.1-4.18,1.12-3.16,1.19L736.73,591l-0.48.51v0.7l1.56,2.79,1.45,1.45,1.51,2.82,1.9,3.38,1,2.4,1.1,1.78,0.9,1.48v1.18l0.17,0.3,0.87,0.58,0.58,1.36,0.31,2.6,0.83,2.48-0.07,2.35,0.34,0.63,0.73,0.73,0.92,2.45,0.29,2.62-0.44,3.77,0.32,2.12,0.92,3.89-0.22,1.24-0.43,1,0.07,3.64,0.27,1.63L751,646.6l-0.58,1.82,0,4.15-0.1,1.29,0.14,1.78L750,657.12l-0.12,2.3-0.53,1.39-0.41,1L748.68,664,747,668.12l-0.1,1.82,0.38,0.63,0.73,0.19,3.43-.61m-55.61-6.46,2.55,0.63,1.19-.26,1.19-.75,1.17-1.23,2.19-2.14,1-2,0.2-1.9,0.61-1.77,0.22-1.23-0.59-3.26-0.53-.92-1.34-1.07-1-1.44-0.85-.6-1.8-.27-2.53.07-1.06.39-3,1.84-1.32,2-1.36,3.47-0.07,3.47,0.7,2.67,1,1.46,1.21,1.68,0.78,0.68,1.5,0.41m-247.74-3.77,2.41-.3,1.72-.07,2.23,0.12,1.14-.29,2,0.36,1.07,0.39,1.21-.14,1.39-.39,8.75-.87,1.26-.17,2.92,0.19,3.67-.19,1.73,0.12,2.58-.77,2.68-.08,6.7-1.5,1.26,0.14,1.09,0.29,2.12-.27,1.48-.46,2-.07h2.5l3.76-.93,2.16-.55,1.78-.61,3.77-.58,5.54-1.21,7.85-2.74,2.55-.83,2.38-.53,2.94-1.37,1.17-.75,1.85-.58,2.38-.49,1.94-.51,0.2-.21v-0.85l1.43-.49,0.22-.25-0.14-.65-3.62-3.18L537.14,635l-1.73-2.6-1-1.45-2.26-3.53-1.07-2.79-0.94-1.94-1.89-6.32L528,614.72l-0.37-1.57L527,611.81l-0.51-2.4,0.24-1.72,0.17-1.6-0.39-4.32,0.08-1.77,1-6.7,0.51-4.32L529,585l1-3.86,1.77-4.48,1.43-3.4,1.2-2.18,1.55-2.79,1-1.94,2.72-3.55,3-2.74,1.21-1.21,1.15-1.73,2.57-1.75,2.24-1.63,2.63-1.68,1-.51,2.33-.54,1.39-.54,1.57-.85,3.65-.64,2.65-.1,1.6-.32L569,549l3.54,0.19,2.4,0.51,1.87,0.53,1.29,0.63,2,0.39,2,0.85,1.36,0.58,2.11,1.26,1.12,0.82,1.4,0.54,1,0.87,1.16,1.24,1.28,1.14,0.75,0.7,1,0.89,3.82,3.88,0.68,0.76,1,0.53H600l1.41-.53,1.77-1.12,1.7-1.19,3.89-2.38,2-.9,1.28-.66,3.62-1.19,2.21-1.17,3-1.33,5.1-1.65,1.55-.87,1.12-.82,1-.42,0.24-.53,0.61-3.11,0.82-2.55,0.49-1,1.72-6,0.56-1.39-0.07-.71-0.56-.9v-0.71l0.89-2,0.27-2.16,0.24-1.09V527.7l0.19-2.74,0.81-2.55,0.34-1.53L636,519.33l0.5-2.33,0.38-1.11-0.09-2.63,0.32-1.06-0.25-2.63-0.2-1.12L637,507l-0.25-1.58-0.07-2.24-0.31-1.51v-3.94l-0.1-1.79,0.22-1.15-0.32-2.64L636,490.4l-0.2-1.89-0.12-1.31,0.14-1.28-0.27-2.11L636,483l-0.2-.53-0.53-1v-1.61l-0.42-2.47-0.77-1.67-0.26-1.33-0.42-1-0.66-5.59-0.63-1.31,0.26-1.22,0.22-.73-0.07-.36-0.9-1L631,461.92l-0.22-2.4-0.53-3.33-0.68-.78-0.39-.54v-1.11l-1.1-2.26-0.61-1.34-1-3.31L625,443.41l-0.59-1.31-0.25-.9-1.89-2.92-0.68-3.18-2.33-4.42-0.83-1.56-2.17-4.1-1.34-2-0.73-2.16-0.77-1.17-2-2.86-1.21-1.68-0.63-2.26L609,412l-0.79-.66-2-3.3-1.06-1.34-3-4.71-1-1.38-1.61-2.18-0.1-.63-1-1-1.82-2.53-0.8-1.11-0.63-1.31-2.06-1.8L592.26,389l-1.14-1.26-0.89-1.53-1.58-1.78-1.31-.63-3-2.24-0.8-1.54-0.82-1.11-0.66-.8-2.59-2.21-2.21-1.67-1-1-2-1.39-2.55-2.26-0.32-.63-0.11-.87-0.46-.51-1.61-.8-1.12-1.27-2.09-.8-2.26-2.09-0.72-.73-1.41-.51-2.35-1.51-2.87-2.43-1.24-.68L554,355.9l-1-.49-2-.1-1.73-1.63L548,352.06l-0.87-.58-2.07-.34-1.67-1.22-0.78-1.14-1.58-.34-2.92-.46-2.65-1.21-1.43-1-0.89-1-1.38-.56-0.77-.7-1.26-.19L527,341.71l-1.71-2.14-0.94-1,0-.58,0.31-.73-0.1-.75-0.69-.8-0.1-2.82,1.27-4.06,1.14-1.21-0.12-1,0.51-1.39,0.32-1.12L528.3,322l0.42-.54,0.09-.8-0.37-1,0.19-1.12,0.92-2,0.6-.85,1.21-3.09-0.07-1.7,0.49-1.9L533,307.3l0.41-1,0-2.23,0.64-1.77v-1.17l0.61-2.94L535,297l0.24-2.67,1-3.33,0.9-2v-1.22l0.09-1.28,0.61-2.29,0.66-1.73,0.31-4.37,0.22-1.21-0.08-1.7,0.71-2.18L540,272l0.17-1.92,0.43-1,0.12-2.11-0.49-1v-1.82l0.82-4.78V257l0.38-1.44v-1.19l0.46-2,0.42-1,0.17-1.77-0.59-1.38,0.47-2.75,0.41-1.51-0.39-2.36,0.22-3.43,0.68-3.82-1-2.91-0.24-2,0.24-1.72,0.73-1.67-0.22-1.58-0.51-2.4L542,218.33l-0.19-1.63,0.1-2.7-0.15-3.2,0.22-1.14-0.68-1.7L541,205.34,540.89,204l-0.37-2L540,199.56l0.1-2.21-0.87-4.4-0.34-3-0.12-.83-0.66-1.75-0.43-2-0.25-1.15,0.1-2.23,0.25-1.21-0.15-1.33L537,177.72l-0.9-2.48-0.82-5L535,168.71v-1.65l-0.66-1.75-0.46-1-0.64-2.23L533,160.81l-0.53-1.41L531,154.57l-0.24-1.22L530,151.74l-0.27-1.17-1.55-2.79-2.06-4.69-0.29-1.16-0.75-1.17-0.54-1.39-0.77-1.16L522.72,135l-1.07-3.28-1.53-1.34-1.21-2.19-0.32-1.1L517.31,126l-1.5-1.87-1.14-2.24-0.75-1.67-0.83-1.56-0.58-1.34-1.27-1.14-2.53-4.22-3.09-4.13-0.85-2L502.29,103l-1.41-2-0.71-1.21-1.53-1.36-0.48-.49-1.68-.71-0.56-.41-0.46-1.46-1-.88-1.87-1-1.26-.68-1-.9-2.67-1.17L485.84,90l-1-.41-1.6-.34-1.48-.44-1.58.31-1.73-.2-1.29-.12-2.77.61-1.26-.12-1,.42-1.5.9L468,91.87l-1.19.75-2.31,1.05-1.44,1.44-2.38,1.48-1.22,2.16-1.68,1.67-1.21.73-0.65.32-1,1.39-0.73.71-1,1.84-0.54.9-0.78.68-1.34,2.5-1.16,3.18-1.41,2.92-1.6,2.26-1.67,5.06L444,125.13l-0.8,1.14-0.53,1.89-1.12,2.74-0.83,1.58v2.09l-0.58.88-0.46.51-1,4.83-0.25,1.65-0.85,4-1.2,2.56,0,1.34,0.32,1.65-0.24,1.7L435.87,156l0.08,2.45V160l-0.41,4.57L435,168.32l-0.51,3.21,0.24,2.63v1.17l0.32,1L434.22,180l0.15,2.23-0.08,1.24,0.19,2.33L433.9,189l-0.15,3.59,0.32,4.11,0.15,2.26,0.1,1.21L434,201.33l-0.08.48,0.44,0.46,0.08,0.71-0.68,1.29-0.15,1.67v2.81l-0.2,1.24,0.32,2.09-0.09,2.18,0.22,3.06-0.15,3.6-0.41,1.48,0.36,1,0.2,1.22,0.24,3-0.37,1.53,0.31,2.09,0.31,1.6-0.27,2.06,0.29,4.91-0.24,2.43,0.14,2.41L435,248.2l-0.15,1.48-0.46,1.48,0.29,2.58,0.65,3.65v1.19l0.32,1.55-0.44.85,0.53,1.21-0.1,3.77,0.15,2.26,0.54,2.84,0.31,5,0,2.4,0.49,1.85,0.68,1.27-0.12,2.06L438,283.9l0.24,2.1-0.29,2.57,0.22,1.22,0.56,1.85v1.17l1,2.82,0.14,1.72-0.08,1.27,0.25,1.62L439.85,302l0.48,1.94,0.59,1.7v1.11l-0.27,1.7,0.51,2.89-0.31,1.58,0.14,0.32,0.83,0.65,0.29,1.63-0.19,1.73-0.2,1.07,1.09,2.28,0.27,1.67,0.44,1,0.12,1.33,0.61,1.31,0.44,2.94L445,331l1,2,0.17,1.73,0.36,2.06,0.31,0.66V340l0.46,2-0.17.7-1.24,1.17-0.58,1.34-1.07.37-4,.37-1.26.19-2.87-.46-1.26.09-1.31-.09-1.22,0L430.6,345h-3.43l-2.84.51-1.61.31-2.7-.56-3.28.55-1.58.34-2.06.85h-2.6l-1.62.27-1.51-.19H406l-0.68-.15-1.51.41-0.85-.1L401.67,346l-1.5-.42-0.75-.22-1-1.36L398,342l-0.41-1-0.7-1.24-0.2-2.6,0.46-2-0.44-1-0.49-.93-0.07-1.09L395.79,331l0.27-1.29-0.39-1.5-0.83-4V321.9l0.29-1.51,0.1-1.14v-0.71l-0.61-1.38,0.07-.71,0.12-.71-0.71-2.17L393.75,311,393,306l-0.66-3.67L392,297l0.24-1.55-0.27-.68-1-1-0.42-2-0.1-2.29L390,288.1l-0.27-1.65-0.68-4.1,0.19-2-0.9-4.08-0.44-1.46v-2.72l-0.86-1-0.39-1.53L386.26,267l-1.5-5.24-0.44-2-0.66-2.7-0.09-1.84-0.39-2L383,251.91l-1-1.84-0.61-.83-0.1-1.34v-1.14l-0.34-1.6-0.15-1.77-0.36-2.06-0.71-1.68-1.14-4.15-0.15-1.31L378,233.11l-0.07-.9L377.2,231l-0.29-1.63L376.33,228l-0.75-3.62,0-1.63-0.58-1.34-0.25-1.19-1-1.92-1.39-3.43-0.32-2.58-0.63-2.24L371,208.62l-0.68-2.23-0.9-3.43-1-1.9-3.25-8.33L365,191.52l0.39-1-0.2-.63-1.51-1.39-0.88-3-0.53-.92L360.68,180l-1.19-2.19,0.07-1.34L359,176l-0.94-.53-1.58-2.75-0.54-.9-0.07-2-0.65-1.29-1.17-.77-1.68-2.65-0.73-1.67L351.2,162l-0.83-1.58-1.51-1.87-0.31-1.14-0.94-.51-1.12-1.77-1.9-2.91-0.61-.83-0.78-.66-1-1.92-1.09-.83-1.65-1.73-2.64-4.1-1.34-1.55-2.92-1.9-1.26-1.14-0.56-.9L329,135.52l-1.17-1.22-4.13-2.63-2.23-.65L319,129.09,316.3,128l-2-.39-1.48-.44-2.45-.44-2.86-1-3.57.14-1.28.12-1.46.48-2.12-.05-3.59.75-1.17.77-1.78.61-3.38,2.89-2.23,1.15-0.65.78-0.7,1.72-2,2.29-0.44,1-0.42,1-1.21,1.7-0.66,1.75-1,2.38-2.29,4-0.27.61-0.15,1L276,152.67l-0.19,1.05-0.14,1.17-0.24.66,0,1.22-0.34.65-1.26,1.63-1.53,5.22-0.88,1.53L271,168.69v1.19l-0.53.94-0.42.54-0.32,2.09L269.46,175l-0.24,3.14L268.29,182,268,187.14l-0.22,1.62,0,1.73-0.59,2.8-0.43,2.4-0.1,1.09-0.27,1.17,0.32,4.4-0.17,1.7-0.48,2.4,0.17,1.77L266,209.76v3.37l-0.29,1v2.43l-0.42,2,0.07,1.36,0.53,1.41,0.41,4.2-0.36,2.65L265.41,231l0.22,1.24,0.66,1.21,0.07,1.58,0.27,1.53-0.34,2.91,0.53,2.34L267,245.4l-0.15,1.05,0.29,1.51,0,1.29,0.24,2,0.19,1.07,0.32,1.12,0.8,4.49,0.17,2.26,0.34,2.07,0.26,2.62,0.37,1.56,0.19,1.73,0.66,3.21,0.92,2.92,0.53,1.87,0.88,2.5-0.1,4.33,0.15,1.24,0.77,1.65,0.85,3.47L275,291l0.34,2,0.07,1.09,0.42,2,0.58,1.8,0.58,1.85,0.49,0.94,0.78,1.15L280,306l0.46,1.46,0.73,2.16,0.2,1.73,1.75,2.58,0.65,2.24,1.34,1.55,0.94,2.92,1,1.85,0.65,2.24,0.12,1.33,1.31,2.55,0.49,1.43,1.1,3.23,0.7,1.24,0.61,1.31,0.51,0.93,0.31,1.62,0.48,0.51,0.85,0.59,0.37,1.07,0.59,2.77,1,1.89,1.12,1.77,0.76,1.65,0.53,1.89,1.5,2.84,0.75,0.68,0.59,1.34,0.65,0.8,1.24,3.11,0.12,1.65,0.56,0.88,0.9,0.53,1.31,1.6,1.39,3.41,0.76,1.63,0.46,1,0.36,1.56,1.65,1.72,1.22,2.63,0.82,1.12,1.51,1.38,0.27,1L314.8,380l1.28,0.66,0.58,0.87,0.54,1.38,1,1.44,2.23,2.58,0.34,1.07-0.19,1.07-0.48,1.46-0.49,2.4-0.19,1.75-0.54,1.39-1.77,2.07L314.62,401l-2.29,2-0.93,1-0.9,1-1.29,1.14-0.66,1.26-1,1-0.92,1.5-0.76.68-1,1.36-1.34,1.55-1.79,4L300,420.16l-1.41,2L298,423.9l-1,.92-0.82.63-0.39,1.68-0.53.94-0.17,1.9-1,1.84-2.43,2.87L291,437l0.12,1.46-1.58,4.67-0.42,1.51-0.68,1.26-0.41,1L287,448.24l-0.78,3.08-0.92,2.46-0.39,2.5-1,3.38-0.31.61v1.63l-1,2.4-0.32,2.57-0.85,4.45L280.86,474l-0.19,1.73-0.7,3.64-0.88,1.51-0.59,1.34-0.92,4.39,0.19,1.94-0.24,1.17,0.08,3.54-0.34,1,0,1.89L277,499l0.09,1.68-0.19,2.06-0.14,1.14L276,507.42l0.2,1.28,0.68,1.73v2.22l0.42,3.86,0.07,4.15v1.78l0,2.12,0.59,4.22,0.15,1.75-0.1,1.63,0.9,3.25V537l0.2,1.22v1.12l0.29,1.16v1.89l0.44,1,0.31,0.66,0.29,2.12,1.51,6.7,0.36,2,1.21,3.6,0.88,1.53,0.12,1.48,0.31,1.14L284.42,564l0.46,0.44L285.8,565l1.36,2.5,0.51,1.41,0.19,1.26,1,0.93,0.88,3.47,1.17,2.19,1,1.85,2.11,4.64,0.88,1.53,0.94,2.43,0.75,0.69,1.48,2.38,0.61,1.8,2.48,2.82,0.92,2,0.7,1.24,1.21,1.21,2.5,3.26,0.58,1.34,1.75,1.63,1.63,2.23,1.31,1.56,2.14,1.73,4.8,4.9,0.87,0.58,1.43,2,2.4,1.94,3.38,2.89,1,0.94,2.77,2.06,2.82,3,1.58,1.31,1.38,0.56,1.21,0.7,2.09,1.29,1.39,1,0.63,0.82,2.12,0.78,1.43,1,3.8,1.83,1.31,1.12,4.59,1.67,1.16,0.78,2,0.83,1.31,0.64,3.09,0.75,3,1.36,2.35,1,1.94,0.46L373.9,649l2.21,0.34,2.16,0.27,2.89,1.45,2.19,0.69L385,652.5l3.47,0.88,4.71,0.59L395,654.2l2.19,1.19,1.7,0.71,2.75,0.14,3.42,0.92,1.62,0.22,1.12,0.07,1.7,0.25,1,0.49,2.68-.12,1,0.38,0.93,1,0.66,0.29,0.58-.19,0.48-.51,0.78-.2,1.26,0.22,1,0.17,3.59,0.48,1.58-.8,2.07,0.2,1.43,0.49h1.67l3.76,0.61,1.65-.12h1.5l2.72-.19,1.21,0.25,3.21,0.15,0.65,0.31,0.22,0.58,0.25,0.09,0.53-.43,0.48-.51,1.63-.44M603,642.9l0.8,0.3h1.89l1.53-.41,2.31-1.55,1.16-1.73,1.9-5.32,0.14-2.8-0.58-1.85L610.85,627l-0.75-1-2.1-1.39-2.21-.12-1.22.17-0.84.61-2.28,1.56-2.38,2.92L597.58,634l0.07,1.83,1.12,3.21,1.56,2.29L603,643m-42.37-4.52,1,0.59,1.61,0.15,0.37-.51v-1.15l0.09-2.31-0.25-4.59,0.12-1.8-0.08-2.65,0.54-1.41,0.07-3.84,0.17-1.68,1-1.91,0.39-1.07-0.1-2.17,0.12-1.82,0.53-2.84,0.47-1.94,1-2.4,1.09-2.77,0.78-1.61,5.1-9.86,1.8-2.51,1.24-2.14,2.26-2.07,1.65-2.21,0.42-1,0.76-1.18,1-.86,2.07-2.26,0.78-1.16,2.14-2.19,0.2-.75-0.19-.78L586.72,569l-1.07-1.84-0.78-.64-2.45-2.4-2.12-1.23-3.53-1.77L575,561l-2.19-1.17-2.82-1-1.82-.1-1.56-.38L565,558l-1,.49-1,.44-3.28.54-2.67.72-1.53.39-1.43,1-2,2.31-1.19.75-1.46,1.43-2,1.89-1.19,1.22-0.89,2-1.27,1.61-1.21,1.68L542.42,576,542,577l-1.29,1.6-0.85,1.09-0.3,1.14,0.08,2.33,0,1.84-0.87,1.54-0.12,1.34-0.17,1.26-1,1.87-0.36,2.53-0.75,1.67-0.27,2.14,0.46,3.4L536.4,602l0.15,2.21v2.26l0.49,2.38v1.63l0.39,2.5,0.58,1.34,0.17,1.27,0.41,1.51,0.75,1.19,2.11,3.2,0.39,2,1,0.92,1.07,1.34,1.21,2.17,2.72,3,1.85,1.53,2.94,1.87,1.46,0.48,1.68,0.71,1.89,1.48,1.39,0.55,1.65,0.76m-90.27-16.28,2.33-.56,2.8-1.07,1.1-1.28,1.51-.92,1.73-.19,1.51-.9,0.9-.55,0.56-.87,0.68-.29,2.12-.07,2.69,0.21,1.34,0.58,1.65,0.29,1.19,0.25,3,0.09,2.35,0.56,1.26,0.19,0.8,0.1,1-.15,2.55,0.83h1.6l3.37-1,1.67-1.22,0.58-1.85v-0.68l-0.58-1.8-0.48-.85v-0.8l-0.12-.34-0.64-.34-0.77-.19-0.44-.53-0.36-.61-0.64-.33h-1.53L504,607l-1.8-.27-1-.37-1.85.17-0.27-.12,0-.59,1-1.41,0.92-.54,1-.49,2-1.91,1.12-.8,1.34-2,0.12-1.34-0.24-.73-1-1.43-0.68-1.24-1.34-1.07-1.36-.58-0.76-.66-1.17.15-1.11.36-1,1-0.83.63-0.75.7-1.61.3-1.55,1.34-1.38.56-2,1.82-1.24.68-1.5,1.36-1.78,1.1-0.71.75-0.78.19-2.94-.48-1-.39-2.43-.48-1.29-.63-0.94-.51-4-.85-3.37-1.44-1.7-.2h-1.22l-0.61-.07-0.82.56-1.58.36-0.78.68-0.09,1-0.8,1.11-0.39.59-0.51.39,0.12,0.61,0.78,1.19v0.75l-0.2,1.23,0.1,0.37,0.7,0.27,0.82,0.15,1.89,1.48,2.33,0.58,0.7,0.75,0.83,1.09,0.14,0.92-0.41.48-1.53.87-1.21.73-0.92.53-1,1-1.12.82-0.17.73,0.32,1.64-0.07,1.75,0.41,0.46,1.87,1.53,3.35,0.53,0.66,0.12,1.34-.49,1.46-.14M382,570.53h1.62l1.6-.82L386,568.1l0.7-.75,0.75-2.6v-1.16l0.75-2.07,0.08-2L388,556.91l-0.43-.54-0.85-.59-0.61-2.28L386,552.14l-0.59-1.82-0.51-.46-1.07-.36-1.65-1.26-1-1-0.93-.44-2.23.09-1.51-.42-0.66-.31h-2.48l-0.59.32-0.63.83-1.26.66L370,549l-1.36,1-1.19,3.62L367,555.19l-0.22.75,0.65,2.72,0.17,0.8L367.31,561l2,3.35,0.19,1.41,0.53,1.41,2.14,1.72,1.62,1.28,1.09,0.36,1.75,0.17,1.11,0.84,1.94,0.44,0.59-.36,0.63-.82,1.19-.27m185.52-29.69,0.84-.58h1.14l0.54-.41,0.8-1.14,1-1,0.66-1.28,0.9-1,0.34-2-0.19-1.1,0.56-1.36-0.15-2.9-1-1.43-0.32-1.07,0.09-1.24-0.53-.92-2.43-2.89-0.58-1.33-0.9-.56-2-.84-2.16-.27-3.94.73-1.34.1-1.62.8-1.43,1-0.27.63-0.07.66-0.9,1-0.94,1.49-0.08,1.29,0.15,1.31-0.38,1.1-0.42,1,0.19,0.71,0.44,0.53v0.63l-0.25,1.09,0.75,2.14,0.31,1.62,0.83,1.56,0.68,1.26,0.81,0.63,1.63,0.78,1.16,1.26,1.36,0.56,2.43,0.31,2.35,0.07,1.94-1"/>
</svg>
